<?xml version="1.0" encoding="utf-8" standalone="no"?>
<!DOCTYPE svg PUBLIC "-//W3C//DTD SVG 1.1//EN"
  "http://www.w3.org/Graphics/SVG/1.1/DTD/svg11.dtd">
<svg xmlns:xlink="http://www.w3.org/1999/xlink" width="460.8pt" height="345.6pt" viewBox="0 0 460.8 345.6" xmlns="http://www.w3.org/2000/svg" version="1.1">
 <metadata>
  <rdf:RDF xmlns:dc="http://purl.org/dc/elements/1.1/" xmlns:cc="http://creativecommons.org/ns#" xmlns:rdf="http://www.w3.org/1999/02/22-rdf-syntax-ns#">
   <cc:Work>
    <dc:type rdf:resource="http://purl.org/dc/dcmitype/StillImage"/>
    <dc:date>2026-01-17T19:07:58.485857</dc:date>
    <dc:format>image/svg+xml</dc:format>
    <dc:creator>
     <cc:Agent>
      <dc:title>Matplotlib v3.10.5, https://matplotlib.org/</dc:title>
     </cc:Agent>
    </dc:creator>
   </cc:Work>
  </rdf:RDF>
 </metadata>
 <defs>
  <style type="text/css">*{stroke-linejoin: round; stroke-linecap: butt}</style>
 </defs>
 <g id="figure_1">
  <g id="patch_1">
   <path d="M 0 345.6 
L 460.8 345.6 
L 460.8 0 
L 0 0 
z
" style="fill: #ffffff"/>
  </g>
  <g id="axes_1">
   <g id="patch_2">
    <path d="M 57.518278 293.134399 
L 445.68 293.134399 
L 445.68 32.189588 
L 57.518278 32.189588 
z
" style="fill: #ffffff"/>
   </g>
   <g id="matplotlib.axis_1">
    <g id="xtick_1">
     <g id="line2d_1">
      <path d="M 110.805861 293.134399 
L 110.805861 32.189588 
" clip-path="url(#p921dd5db2a)" style="fill: none; stroke: #b0b0b0; stroke-width: 0.8; stroke-linecap: square"/>
     </g>
     <g id="line2d_2">
      <defs>
       <path id="m072af93f14" d="M 0 0 
L 0 3.5 
" style="stroke: #000000; stroke-width: 0.8"/>
      </defs>
      <g>
       <use xlink:href="#m072af93f14" x="110.805861" y="293.134399" style="stroke: #000000; stroke-width: 0.8"/>
      </g>
     </g>
     <g id="text_1">
      <!-- $\mathdefault{−4}$ -->
      <g transform="translate(101.967499 309.820275) scale(0.14 -0.14)">
       <defs>
        <path id="CMSY10-0" d="M 4218 1472 
C 4326 1472 4442 1472 4442 1600 
C 4442 1728 4326 1728 4218 1728 
L 755 1728 
C 646 1728 531 1728 531 1600 
C 531 1472 646 1472 755 1472 
L 4218 1472 
z
" transform="scale(0.015625)"/>
        <path id="CMR17-34" d="M 2150 4147 
C 2150 4281 2144 4288 2029 4288 
L 128 1254 
L 128 1088 
L 1779 1088 
L 1779 460 
C 1779 230 1766 166 1318 166 
L 1197 166 
L 1197 0 
C 1402 12 1747 12 1965 12 
C 2182 12 2528 12 2733 0 
L 2733 166 
L 2611 166 
C 2163 166 2150 230 2150 460 
L 2150 1088 
L 2803 1088 
L 2803 1254 
L 2150 1254 
L 2150 4147 
z
M 1798 3723 
L 1798 1254 
L 256 1254 
L 1798 3723 
z
" transform="scale(0.015625)"/>
       </defs>
       <use xlink:href="#CMSY10-0" transform="scale(0.996264)"/>
       <use xlink:href="#CMR17-34" transform="translate(77.487468 0) scale(0.996264)"/>
      </g>
     </g>
    </g>
    <g id="xtick_2">
     <g id="line2d_3">
      <path d="M 182.093597 293.134399 
L 182.093597 32.189588 
" clip-path="url(#p921dd5db2a)" style="fill: none; stroke: #b0b0b0; stroke-width: 0.8; stroke-linecap: square"/>
     </g>
     <g id="line2d_4">
      <g>
       <use xlink:href="#m072af93f14" x="182.093597" y="293.134399" style="stroke: #000000; stroke-width: 0.8"/>
      </g>
     </g>
     <g id="text_2">
      <!-- $\mathdefault{−2}$ -->
      <g transform="translate(173.255235 309.820275) scale(0.14 -0.14)">
       <defs>
        <path id="CMR17-32" d="M 2669 990 
L 2554 990 
C 2490 537 2438 460 2413 422 
C 2381 371 1920 371 1830 371 
L 602 371 
C 832 620 1280 1073 1824 1596 
C 2214 1966 2669 2400 2669 3033 
C 2669 3788 2067 4224 1395 4224 
C 691 4224 262 3603 262 3027 
C 262 2777 448 2745 525 2745 
C 589 2745 781 2783 781 3007 
C 781 3206 614 3264 525 3264 
C 486 3264 448 3257 422 3244 
C 544 3788 915 4057 1306 4057 
C 1862 4057 2227 3616 2227 3033 
C 2227 2477 1901 1998 1536 1583 
L 262 147 
L 262 0 
L 2515 0 
L 2669 990 
z
" transform="scale(0.015625)"/>
       </defs>
       <use xlink:href="#CMSY10-0" transform="scale(0.996264)"/>
       <use xlink:href="#CMR17-32" transform="translate(77.487468 0) scale(0.996264)"/>
      </g>
     </g>
    </g>
    <g id="xtick_3">
     <g id="line2d_5">
      <path d="M 253.381332 293.134399 
L 253.381332 32.189588 
" clip-path="url(#p921dd5db2a)" style="fill: none; stroke: #b0b0b0; stroke-width: 0.8; stroke-linecap: square"/>
     </g>
     <g id="line2d_6">
      <g>
       <use xlink:href="#m072af93f14" x="253.381332" y="293.134399" style="stroke: #000000; stroke-width: 0.8"/>
      </g>
     </g>
     <g id="text_3">
      <!-- $\mathdefault{0}$ -->
      <g transform="translate(249.967088 309.820275) scale(0.14 -0.14)">
       <defs>
        <path id="CMR17-30" d="M 2688 2038 
C 2688 2430 2682 3099 2413 3613 
C 2176 4063 1798 4224 1466 4224 
C 1158 4224 768 4082 525 3620 
C 269 3137 243 2539 243 2038 
C 243 1671 250 1112 448 623 
C 723 -39 1216 -128 1466 -128 
C 1760 -128 2208 -7 2470 604 
C 2662 1048 2688 1568 2688 2038 
z
M 1466 -26 
C 1056 -26 813 328 723 816 
C 653 1196 653 1749 653 2109 
C 653 2604 653 3015 736 3407 
C 858 3954 1216 4121 1466 4121 
C 1728 4121 2067 3947 2189 3420 
C 2272 3054 2278 2623 2278 2109 
C 2278 1691 2278 1176 2202 797 
C 2067 96 1690 -26 1466 -26 
z
" transform="scale(0.015625)"/>
       </defs>
       <use xlink:href="#CMR17-30" transform="scale(0.996264)"/>
      </g>
     </g>
    </g>
    <g id="xtick_4">
     <g id="line2d_7">
      <path d="M 324.669068 293.134399 
L 324.669068 32.189588 
" clip-path="url(#p921dd5db2a)" style="fill: none; stroke: #b0b0b0; stroke-width: 0.8; stroke-linecap: square"/>
     </g>
     <g id="line2d_8">
      <g>
       <use xlink:href="#m072af93f14" x="324.669068" y="293.134399" style="stroke: #000000; stroke-width: 0.8"/>
      </g>
     </g>
     <g id="text_4">
      <!-- $\mathdefault{2}$ -->
      <g transform="translate(321.254824 309.820275) scale(0.14 -0.14)">
       <use xlink:href="#CMR17-32" transform="scale(0.996264)"/>
      </g>
     </g>
    </g>
    <g id="xtick_5">
     <g id="line2d_9">
      <path d="M 395.956804 293.134399 
L 395.956804 32.189588 
" clip-path="url(#p921dd5db2a)" style="fill: none; stroke: #b0b0b0; stroke-width: 0.8; stroke-linecap: square"/>
     </g>
     <g id="line2d_10">
      <g>
       <use xlink:href="#m072af93f14" x="395.956804" y="293.134399" style="stroke: #000000; stroke-width: 0.8"/>
      </g>
     </g>
     <g id="text_5">
      <!-- $\mathdefault{4}$ -->
      <g transform="translate(392.54256 309.820275) scale(0.14 -0.14)">
       <use xlink:href="#CMR17-34" transform="scale(0.996264)"/>
      </g>
     </g>
    </g>
    <g id="text_6">
     <!-- $\textrm{Displacement $d$ / mm}$ -->
     <g transform="translate(186.462937 326.993076) scale(0.14 -0.14)">
      <defs>
       <path id="CMR17-44" d="M 333 4352 
L 333 4185 
C 774 4185 845 4185 845 3898 
L 845 453 
C 845 166 774 166 333 166 
L 333 0 
L 2368 0 
C 3398 0 4224 943 4224 2140 
C 4224 3344 3411 4352 2368 4352 
L 333 4352 
z
M 1523 166 
C 1267 166 1254 198 1254 414 
L 1254 3936 
C 1254 4153 1267 4185 1523 4185 
L 2240 4185 
C 2771 4185 3750 3873 3750 2140 
C 3750 1242 3488 879 3366 707 
C 3213 510 2848 166 2240 166 
L 1523 166 
z
" transform="scale(0.015625)"/>
       <path id="CMR17-69" d="M 992 3961 
C 992 4102 877 4224 730 4224 
C 589 4224 467 4108 467 3961 
C 467 3820 582 3699 730 3699 
C 870 3699 992 3814 992 3961 
z
M 243 2745 
L 243 2579 
C 602 2579 653 2540 653 2231 
L 653 443 
C 653 198 627 166 218 166 
L 218 0 
C 371 12 646 12 806 12 
C 960 12 1222 12 1370 0 
L 1370 166 
C 992 166 979 205 979 436 
L 979 2816 
L 243 2745 
z
" transform="scale(0.015625)"/>
       <path id="CMR17-73" d="M 1978 2688 
C 1978 2803 1971 2809 1933 2809 
C 1907 2809 1901 2803 1824 2707 
C 1805 2681 1747 2617 1728 2592 
C 1523 2809 1235 2816 1126 2816 
C 416 2816 160 2444 160 2073 
C 160 1497 813 1363 998 1324 
C 1402 1241 1542 1216 1677 1100 
C 1760 1024 1901 883 1901 652 
C 1901 384 1747 38 1158 38 
C 602 38 403 460 288 1024 
C 269 1113 269 1120 218 1120 
C 166 1120 160 1113 160 985 
L 160 64 
C 160 -52 166 -58 205 -58 
C 237 -58 243 -52 275 0 
C 314 57 410 211 448 275 
C 576 102 800 -64 1158 -64 
C 1792 -64 2131 281 2131 780 
C 2131 1107 1958 1280 1875 1356 
C 1683 1555 1459 1600 1190 1651 
C 838 1728 390 1817 390 2208 
C 390 2374 480 2726 1126 2726 
C 1811 2726 1850 2086 1862 1881 
C 1869 1849 1901 1843 1920 1843 
C 1978 1843 1978 1862 1978 1971 
L 1978 2688 
z
" transform="scale(0.015625)"/>
       <path id="CMR17-70" d="M 1408 -1114 
C 998 -1114 973 -1088 973 -834 
L 973 380 
C 1158 109 1427 -64 1766 -64 
C 2406 -64 3053 503 3053 1382 
C 3053 2196 2496 2816 1837 2816 
C 1453 2816 1139 2603 960 2345 
L 960 2816 
L 198 2745 
L 198 2577 
C 576 2577 634 2539 634 2228 
L 634 -834 
C 634 -1081 608 -1114 198 -1114 
L 198 -1280 
C 352 -1268 634 -1268 800 -1268 
C 966 -1268 1254 -1268 1408 -1280 
L 1408 -1114 
z
M 973 2015 
C 973 2106 973 2241 1222 2481 
C 1254 2506 1472 2700 1792 2700 
C 2259 2700 2643 2112 2643 1376 
C 2643 639 2234 38 1728 38 
C 1498 38 1248 148 1056 451 
C 973 594 973 632 973 736 
L 973 2015 
z
" transform="scale(0.015625)"/>
       <path id="CMR17-6c" d="M 979 4416 
L 218 4345 
L 218 4179 
C 595 4179 653 4141 653 3835 
L 653 439 
C 653 198 627 166 218 166 
L 218 0 
C 371 12 653 12 813 12 
C 979 12 1261 12 1414 0 
L 1414 166 
C 1005 166 979 191 979 439 
L 979 4416 
z
" transform="scale(0.015625)"/>
       <path id="CMR17-61" d="M 2304 1656 
C 2304 2048 2304 2275 2035 2534 
C 1798 2751 1523 2816 1306 2816 
C 800 2816 435 2408 435 1977 
C 435 1740 627 1728 666 1728 
C 749 1728 896 1779 896 1958 
C 896 2118 774 2188 666 2188 
C 640 2188 608 2182 589 2176 
C 723 2594 1069 2713 1293 2713 
C 1613 2713 1965 2421 1965 1875 
L 1965 1632 
C 1587 1619 1133 1568 774 1373 
C 371 1147 256 822 256 576 
C 256 77 832 -64 1171 -64 
C 1523 -64 1850 135 1990 505 
C 2003 219 2182 -39 2464 -39 
C 2598 -39 2938 51 2938 563 
L 2938 926 
L 2822 926 
L 2822 557 
C 2822 161 2650 109 2566 109 
C 2304 109 2304 446 2304 732 
L 2304 1656 
z
M 1965 887 
C 1965 323 1568 38 1216 38 
C 896 38 646 278 646 576 
C 646 771 730 1114 1101 1322 
C 1408 1497 1760 1523 1965 1536 
L 1965 887 
z
" transform="scale(0.015625)"/>
       <path id="CMR17-63" d="M 2234 2240 
C 2112 2240 1933 2240 1933 2015 
C 1933 1836 2080 1785 2163 1785 
C 2208 1785 2394 1804 2394 2028 
C 2394 2476 1958 2816 1466 2816 
C 787 2816 211 2201 211 1379 
C 211 521 813 -64 1466 -64 
C 2259 -64 2458 676 2458 747 
C 2458 773 2451 792 2406 792 
C 2362 792 2355 786 2330 702 
C 2163 180 1798 51 1523 51 
C 1114 51 621 431 621 1385 
C 621 2358 1094 2700 1472 2700 
C 1722 2700 2093 2582 2234 2240 
z
" transform="scale(0.015625)"/>
       <path id="CMR17-65" d="M 2438 1503 
C 2464 1529 2464 1542 2464 1606 
C 2464 2251 2118 2816 1389 2816 
C 710 2816 173 2175 173 1394 
C 173 554 781 -64 1459 -64 
C 2176 -64 2458 619 2458 755 
C 2458 800 2419 800 2406 800 
C 2362 800 2355 787 2330 709 
C 2189 270 1837 51 1504 51 
C 1229 51 954 206 781 490 
C 582 819 582 1200 582 1503 
L 2438 1503 
z
M 589 1600 
C 634 2511 1126 2713 1382 2713 
C 1818 2713 2112 2308 2118 1600 
L 589 1600 
z
" transform="scale(0.015625)"/>
       <path id="CMR17-6d" d="M 4326 1954 
C 4326 2276 4269 2816 3507 2816 
C 3072 2816 2771 2520 2656 2173 
L 2650 2173 
C 2573 2700 2195 2816 1837 2816 
C 1331 2816 1069 2424 973 2166 
L 966 2166 
L 966 2816 
L 211 2745 
L 211 2578 
C 589 2578 646 2540 646 2231 
L 646 443 
C 646 198 621 166 211 166 
L 211 0 
C 365 12 646 12 813 12 
C 979 12 1267 12 1421 0 
L 1421 166 
C 1011 166 986 192 986 443 
L 986 1678 
C 986 2269 1344 2713 1792 2713 
C 2266 2713 2317 2289 2317 1980 
L 2317 443 
C 2317 198 2291 166 1882 166 
L 1882 0 
C 2035 12 2317 12 2483 12 
C 2650 12 2938 12 3091 0 
L 3091 166 
C 2682 166 2656 192 2656 443 
L 2656 1678 
C 2656 2269 3014 2713 3462 2713 
C 3936 2713 3987 2289 3987 1980 
L 3987 443 
C 3987 198 3962 166 3552 166 
L 3552 0 
C 3706 12 3987 12 4154 12 
C 4320 12 4608 12 4762 0 
L 4762 166 
C 4352 166 4326 192 4326 443 
L 4326 1954 
z
" transform="scale(0.015625)"/>
       <path id="CMR17-6e" d="M 2656 1954 
C 2656 2282 2592 2816 1837 2816 
C 1331 2816 1069 2424 973 2166 
L 966 2166 
L 966 2816 
L 211 2745 
L 211 2578 
C 589 2578 646 2540 646 2231 
L 646 443 
C 646 198 621 166 211 166 
L 211 0 
C 365 12 646 12 813 12 
C 979 12 1267 12 1421 0 
L 1421 166 
C 1011 166 986 192 986 443 
L 986 1678 
C 986 2269 1344 2713 1792 2713 
C 2266 2713 2317 2289 2317 1980 
L 2317 443 
C 2317 198 2291 166 1882 166 
L 1882 0 
C 2035 12 2317 12 2483 12 
C 2650 12 2938 12 3091 0 
L 3091 166 
C 2682 166 2656 192 2656 443 
L 2656 1954 
z
" transform="scale(0.015625)"/>
       <path id="CMR17-74" d="M 966 2585 
L 1862 2585 
L 1862 2752 
L 966 2752 
L 966 3968 
L 851 3968 
C 838 3292 614 2700 70 2687 
L 70 2585 
L 627 2585 
L 627 778 
C 627 655 627 -64 1370 -64 
C 1747 -64 1965 308 1965 784 
L 1965 1151 
L 1850 1151 
L 1850 790 
C 1850 347 1677 51 1408 51 
C 1222 51 966 179 966 765 
L 966 2585 
z
" transform="scale(0.015625)"/>
       <path id="CMMI12-64" d="M 3219 4255 
C 3226 4281 3238 4319 3238 4351 
C 3238 4416 3174 4416 3162 4416 
C 3155 4416 2842 4390 2810 4383 
C 2701 4377 2605 4364 2490 4358 
C 2330 4345 2285 4339 2285 4223 
C 2285 4159 2336 4159 2426 4159 
C 2739 4159 2746 4103 2746 4040 
C 2746 4002 2733 3951 2726 3932 
L 2336 2394 
C 2266 2560 2093 2816 1760 2816 
C 1037 2816 256 1883 256 938 
C 256 306 627 -64 1062 -64 
C 1414 -64 1715 210 1894 421 
C 1958 44 2259 -64 2451 -64 
C 2643 -64 2797 51 2912 281 
C 3014 498 3104 887 3104 913 
C 3104 945 3078 970 3040 970 
C 2982 970 2976 938 2950 842 
C 2854 466 2733 64 2470 64 
C 2285 64 2272 230 2272 357 
C 2272 383 2272 517 2317 696 
L 3219 4255 
z
M 1926 759 
C 1894 651 1894 638 1805 517 
C 1664 338 1382 64 1082 64 
C 819 64 672 300 672 676 
C 672 1028 870 1743 992 2011 
C 1210 2458 1510 2687 1760 2687 
C 2182 2687 2266 2164 2266 2113 
C 2266 2107 2246 2024 2240 2011 
L 1926 759 
z
" transform="scale(0.015625)"/>
       <path id="CMR17-2f" d="M 2605 4575 
C 2637 4658 2637 4671 2637 4684 
C 2637 4761 2579 4800 2528 4800 
C 2451 4800 2426 4748 2400 4671 
L 326 -1376 
C 294 -1460 294 -1472 294 -1485 
C 294 -1562 352 -1600 403 -1600 
C 480 -1600 506 -1549 531 -1472 
L 2605 4575 
z
" transform="scale(0.015625)"/>
      </defs>
      <use xlink:href="#CMR17-44" transform="scale(0.996264)"/>
      <use xlink:href="#CMR17-69" transform="translate(70.393556 0) scale(0.996264)"/>
      <use xlink:href="#CMR17-73" transform="translate(95.264614 0) scale(0.996264)"/>
      <use xlink:href="#CMR17-70" transform="translate(131.065952 0) scale(0.996264)"/>
      <use xlink:href="#CMR17-6c" transform="translate(181.961322 0) scale(0.996264)"/>
      <use xlink:href="#CMR17-61" transform="translate(206.83238 0) scale(0.996264)"/>
      <use xlink:href="#CMR17-63" transform="translate(252.522857 0) scale(0.996264)"/>
      <use xlink:href="#CMR17-65" transform="translate(293.008518 0) scale(0.996264)"/>
      <use xlink:href="#CMR17-6d" transform="translate(333.494178 0) scale(0.996264)"/>
      <use xlink:href="#CMR17-65" transform="translate(410.413768 0) scale(0.996264)"/>
      <use xlink:href="#CMR17-6e" transform="translate(450.899429 0) scale(0.996264)"/>
      <use xlink:href="#CMR17-74" transform="translate(499.192345 0) scale(0.996264)"/>
      <use xlink:href="#CMMI12-64" transform="translate(564.549079 0) scale(0.996264)"/>
      <use xlink:href="#CMR17-2f" transform="translate(645.314142 0) scale(0.996264)"/>
      <use xlink:href="#CMR17-6d" transform="translate(721.080585 0) scale(0.996264)"/>
      <use xlink:href="#CMR17-6d" transform="translate(798.000175 0) scale(0.996264)"/>
     </g>
    </g>
   </g>
   <g id="matplotlib.axis_2">
    <g id="ytick_1">
     <g id="line2d_11">
      <path d="M 57.518278 278.809179 
L 445.68 278.809179 
" clip-path="url(#p921dd5db2a)" style="fill: none; stroke: #b0b0b0; stroke-width: 0.8; stroke-linecap: square"/>
     </g>
     <g id="line2d_12">
      <defs>
       <path id="mc750bfedce" d="M 0 0 
L -3.5 0 
" style="stroke: #000000; stroke-width: 0.8"/>
      </defs>
      <g>
       <use xlink:href="#mc750bfedce" x="57.518278" y="278.809179" style="stroke: #000000; stroke-width: 0.8"/>
      </g>
     </g>
     <g id="text_7">
      <!-- $\mathdefault{4.0}$ -->
      <g transform="translate(33.067696 283.652117) scale(0.14 -0.14)">
       <defs>
        <path id="CMMI12-3a" d="M 1178 307 
C 1178 492 1024 620 870 620 
C 685 620 557 467 557 313 
C 557 128 710 0 864 0 
C 1050 0 1178 153 1178 307 
z
" transform="scale(0.015625)"/>
       </defs>
       <use xlink:href="#CMR17-34" transform="scale(0.996264)"/>
       <use xlink:href="#CMMI12-3a" transform="translate(45.690477 0) scale(0.996264)"/>
       <use xlink:href="#CMR17-30" transform="translate(72.787654 0) scale(0.996264)"/>
      </g>
     </g>
    </g>
    <g id="ytick_2">
     <g id="line2d_13">
      <path d="M 57.518278 237.55878 
L 445.68 237.55878 
" clip-path="url(#p921dd5db2a)" style="fill: none; stroke: #b0b0b0; stroke-width: 0.8; stroke-linecap: square"/>
     </g>
     <g id="line2d_14">
      <g>
       <use xlink:href="#mc750bfedce" x="57.518278" y="237.55878" style="stroke: #000000; stroke-width: 0.8"/>
      </g>
     </g>
     <g id="text_8">
      <!-- $\mathdefault{4.5}$ -->
      <g transform="translate(33.067696 242.401718) scale(0.14 -0.14)">
       <defs>
        <path id="CMR17-35" d="M 730 3750 
C 794 3724 1056 3641 1325 3641 
C 1920 3641 2246 3961 2432 4140 
C 2432 4191 2432 4224 2394 4224 
C 2387 4224 2374 4224 2323 4198 
C 2099 4102 1837 4032 1517 4032 
C 1325 4032 1037 4055 723 4191 
C 653 4224 640 4224 634 4224 
C 602 4224 595 4217 595 4090 
L 595 2231 
C 595 2113 595 2080 659 2080 
C 691 2080 704 2093 736 2139 
C 941 2435 1222 2560 1542 2560 
C 1766 2560 2246 2415 2246 1293 
C 2246 1087 2246 716 2054 422 
C 1894 159 1645 25 1370 25 
C 947 25 518 319 403 812 
C 429 806 480 793 506 793 
C 589 793 749 838 749 1036 
C 749 1209 627 1280 506 1280 
C 358 1280 262 1190 262 1011 
C 262 454 704 -128 1382 -128 
C 2042 -128 2669 441 2669 1267 
C 2669 2054 2170 2662 1549 2662 
C 1222 2662 947 2540 730 2304 
L 730 3750 
z
" transform="scale(0.015625)"/>
       </defs>
       <use xlink:href="#CMR17-34" transform="scale(0.996264)"/>
       <use xlink:href="#CMMI12-3a" transform="translate(45.690477 0) scale(0.996264)"/>
       <use xlink:href="#CMR17-35" transform="translate(72.787654 0) scale(0.996264)"/>
      </g>
     </g>
    </g>
    <g id="ytick_3">
     <g id="line2d_15">
      <path d="M 57.518278 196.308382 
L 445.68 196.308382 
" clip-path="url(#p921dd5db2a)" style="fill: none; stroke: #b0b0b0; stroke-width: 0.8; stroke-linecap: square"/>
     </g>
     <g id="line2d_16">
      <g>
       <use xlink:href="#mc750bfedce" x="57.518278" y="196.308382" style="stroke: #000000; stroke-width: 0.8"/>
      </g>
     </g>
     <g id="text_9">
      <!-- $\mathdefault{5.0}$ -->
      <g transform="translate(33.067696 201.15132) scale(0.14 -0.14)">
       <use xlink:href="#CMR17-35" transform="scale(0.996264)"/>
       <use xlink:href="#CMMI12-3a" transform="translate(45.690477 0) scale(0.996264)"/>
       <use xlink:href="#CMR17-30" transform="translate(72.787654 0) scale(0.996264)"/>
      </g>
     </g>
    </g>
    <g id="ytick_4">
     <g id="line2d_17">
      <path d="M 57.518278 155.057983 
L 445.68 155.057983 
" clip-path="url(#p921dd5db2a)" style="fill: none; stroke: #b0b0b0; stroke-width: 0.8; stroke-linecap: square"/>
     </g>
     <g id="line2d_18">
      <g>
       <use xlink:href="#mc750bfedce" x="57.518278" y="155.057983" style="stroke: #000000; stroke-width: 0.8"/>
      </g>
     </g>
     <g id="text_10">
      <!-- $\mathdefault{5.5}$ -->
      <g transform="translate(33.067696 159.900921) scale(0.14 -0.14)">
       <use xlink:href="#CMR17-35" transform="scale(0.996264)"/>
       <use xlink:href="#CMMI12-3a" transform="translate(45.690477 0) scale(0.996264)"/>
       <use xlink:href="#CMR17-35" transform="translate(72.787654 0) scale(0.996264)"/>
      </g>
     </g>
    </g>
    <g id="ytick_5">
     <g id="line2d_19">
      <path d="M 57.518278 113.807585 
L 445.68 113.807585 
" clip-path="url(#p921dd5db2a)" style="fill: none; stroke: #b0b0b0; stroke-width: 0.8; stroke-linecap: square"/>
     </g>
     <g id="line2d_20">
      <g>
       <use xlink:href="#mc750bfedce" x="57.518278" y="113.807585" style="stroke: #000000; stroke-width: 0.8"/>
      </g>
     </g>
     <g id="text_11">
      <!-- $\mathdefault{6.0}$ -->
      <g transform="translate(33.067696 118.650523) scale(0.14 -0.14)">
       <defs>
        <path id="CMR17-36" d="M 678 2198 
C 678 3712 1395 4076 1811 4076 
C 1946 4076 2272 4049 2400 3782 
C 2298 3782 2106 3782 2106 3558 
C 2106 3385 2246 3328 2336 3328 
C 2394 3328 2566 3353 2566 3571 
C 2566 3987 2246 4224 1805 4224 
C 1043 4224 243 3411 243 2011 
C 243 257 966 -128 1478 -128 
C 2099 -128 2688 431 2688 1295 
C 2688 2101 2170 2688 1517 2688 
C 1126 2688 838 2430 678 1979 
L 678 2198 
z
M 1478 25 
C 691 25 691 1212 691 1450 
C 691 1914 909 2585 1504 2585 
C 1613 2585 1926 2585 2138 2140 
C 2253 1889 2253 1624 2253 1302 
C 2253 954 2253 696 2118 438 
C 1978 173 1773 25 1478 25 
z
" transform="scale(0.015625)"/>
       </defs>
       <use xlink:href="#CMR17-36" transform="scale(0.996264)"/>
       <use xlink:href="#CMMI12-3a" transform="translate(45.690477 0) scale(0.996264)"/>
       <use xlink:href="#CMR17-30" transform="translate(72.787654 0) scale(0.996264)"/>
      </g>
     </g>
    </g>
    <g id="ytick_6">
     <g id="line2d_21">
      <path d="M 57.518278 72.557186 
L 445.68 72.557186 
" clip-path="url(#p921dd5db2a)" style="fill: none; stroke: #b0b0b0; stroke-width: 0.8; stroke-linecap: square"/>
     </g>
     <g id="line2d_22">
      <g>
       <use xlink:href="#mc750bfedce" x="57.518278" y="72.557186" style="stroke: #000000; stroke-width: 0.8"/>
      </g>
     </g>
     <g id="text_12">
      <!-- $\mathdefault{6.5}$ -->
      <g transform="translate(33.067696 77.400124) scale(0.14 -0.14)">
       <use xlink:href="#CMR17-36" transform="scale(0.996264)"/>
       <use xlink:href="#CMMI12-3a" transform="translate(45.690477 0) scale(0.996264)"/>
       <use xlink:href="#CMR17-35" transform="translate(72.787654 0) scale(0.996264)"/>
      </g>
     </g>
    </g>
    <g id="text_13">
     <!-- $\textrm{Force factor $Bl$ / Tm}$ -->
     <g transform="translate(25.580772 226.817521) rotate(-90) scale(0.14 -0.14)">
      <defs>
       <path id="CMR17-46" d="M 3482 4339 
L 326 4339 
L 326 4172 
C 768 4172 838 4172 838 3883 
L 838 450 
C 838 166 768 166 326 166 
L 326 0 
C 512 12 870 12 1069 12 
C 1331 12 1638 12 1901 0 
L 1901 166 
L 1760 166 
C 1274 166 1261 229 1261 456 
L 1261 2073 
L 1837 2073 
C 2432 2073 2490 1865 2490 1334 
L 2605 1334 
L 2605 2991 
L 2490 2991 
C 2490 2451 2432 2240 1837 2240 
L 1261 2240 
L 1261 3922 
C 1261 4140 1274 4172 1530 4172 
L 2355 4172 
C 3322 4172 3430 3774 3520 2920 
L 3635 2920 
L 3482 4339 
z
" transform="scale(0.015625)"/>
       <path id="CMR17-6f" d="M 2758 1356 
C 2758 2176 2163 2816 1466 2816 
C 768 2816 173 2176 173 1356 
C 173 550 768 -64 1466 -64 
C 2163 -64 2758 550 2758 1356 
z
M 1466 51 
C 1165 51 909 230 762 480 
C 602 768 582 1126 582 1408 
C 582 1676 595 2009 762 2297 
C 890 2508 1139 2713 1466 2713 
C 1754 2713 1997 2553 2150 2329 
C 2349 2028 2349 1606 2349 1408 
C 2349 1158 2336 774 2163 467 
C 1984 172 1709 51 1466 51 
z
" transform="scale(0.015625)"/>
       <path id="CMR17-72" d="M 960 1517 
C 960 2134 1222 2713 1702 2713 
C 1747 2713 1792 2707 1837 2687 
C 1837 2687 1696 2642 1696 2475 
C 1696 2321 1818 2257 1914 2257 
C 1990 2257 2131 2302 2131 2482 
C 2131 2687 1926 2816 1709 2816 
C 1222 2816 1011 2340 947 2115 
L 941 2115 
L 941 2816 
L 198 2745 
L 198 2578 
C 576 2578 634 2540 634 2231 
L 634 443 
C 634 198 608 166 198 166 
L 198 0 
C 352 12 646 12 813 12 
C 998 12 1325 12 1498 0 
L 1498 166 
C 1037 166 960 166 960 455 
L 960 1517 
z
" transform="scale(0.015625)"/>
       <path id="CMR17-66" d="M 979 2585 
L 1709 2585 
L 1709 2752 
L 966 2752 
L 966 3539 
C 966 4076 1235 4377 1510 4377 
C 1594 4377 1690 4363 1754 4339 
C 1702 4326 1568 4281 1568 4121 
C 1568 3955 1696 3904 1786 3904 
C 1875 3904 2003 3955 2003 4121 
C 2003 4353 1773 4480 1517 4480 
C 1152 4480 653 4211 653 3526 
L 653 2752 
L 141 2752 
L 141 2585 
L 653 2585 
L 653 441 
C 653 198 627 166 218 166 
L 218 0 
C 371 12 666 12 832 12 
C 1018 12 1344 12 1517 0 
L 1517 166 
C 1056 166 979 166 979 454 
L 979 2585 
z
" transform="scale(0.015625)"/>
       <path id="CMMI12-42" d="M 2342 3915 
C 2400 4153 2426 4166 2675 4166 
L 3507 4166 
C 4230 4166 4230 3547 4230 3489 
C 4230 2967 3712 2304 2867 2304 
L 1946 2304 
L 2342 3915 
z
M 3424 2252 
C 4122 2381 4755 2871 4755 3463 
C 4755 3966 4314 4352 3590 4352 
L 1536 4352 
C 1414 4352 1357 4352 1357 4230 
C 1357 4166 1414 4166 1510 4166 
C 1901 4166 1901 4114 1901 4043 
C 1901 4031 1901 3992 1875 3895 
L 1011 469 
C 954 248 941 185 493 185 
C 371 185 307 185 307 70 
C 307 0 346 0 474 0 
L 2669 0 
C 3648 0 4403 733 4403 1369 
C 4403 1886 3942 2201 3424 2252 
z
M 2515 185 
L 1651 185 
C 1562 185 1549 185 1510 191 
C 1440 198 1434 210 1434 261 
C 1434 305 1446 343 1459 399 
L 1907 2176 
L 3110 2176 
C 3866 2176 3866 1483 3866 1432 
C 3866 828 3309 185 2515 185 
z
" transform="scale(0.015625)"/>
       <path id="CMMI12-6c" d="M 1626 4255 
C 1632 4281 1645 4319 1645 4351 
C 1645 4416 1581 4416 1568 4416 
C 1562 4416 1331 4396 1216 4383 
C 1107 4377 1011 4364 896 4358 
C 742 4345 698 4339 698 4223 
C 698 4159 762 4159 826 4159 
C 1152 4159 1152 4102 1152 4039 
C 1152 4013 1152 4001 1120 3886 
L 326 731 
C 307 661 294 610 294 509 
C 294 191 531 -64 858 -64 
C 1069 -64 1210 76 1312 273 
C 1421 483 1510 884 1510 909 
C 1510 941 1485 967 1446 967 
C 1389 967 1382 935 1357 839 
C 1242 401 1126 64 870 64 
C 678 64 678 267 678 356 
C 678 382 678 515 723 693 
L 1626 4255 
z
" transform="scale(0.015625)"/>
       <path id="CMR17-54" d="M 3981 4332 
L 288 4332 
L 179 2924 
L 294 2924 
C 378 3981 467 4166 1453 4166 
C 1568 4166 1754 4166 1805 4159 
C 1926 4140 1926 4064 1926 3917 
L 1926 465 
C 1926 236 1907 166 1376 166 
L 1197 166 
L 1197 0 
C 1504 6 1824 12 2138 12 
C 2451 12 2771 6 3078 0 
L 3078 166 
L 2899 166 
C 2368 166 2349 236 2349 465 
L 2349 3917 
C 2349 4057 2349 4134 2464 4159 
C 2515 4166 2701 4166 2816 4166 
C 3795 4166 3891 3981 3974 2924 
L 4090 2924 
L 3981 4332 
z
" transform="scale(0.015625)"/>
      </defs>
      <use xlink:href="#CMR17-46" transform="scale(0.996264)"/>
      <use xlink:href="#CMR17-6f" transform="translate(52.176591 0) scale(0.996264)"/>
      <use xlink:href="#CMR17-72" transform="translate(97.867068 0) scale(0.996264)"/>
      <use xlink:href="#CMR17-63" transform="translate(133.147836 0) scale(0.996264)"/>
      <use xlink:href="#CMR17-65" transform="translate(173.633497 0) scale(0.996264)"/>
      <use xlink:href="#CMR17-66" transform="translate(244.195123 0) scale(0.996264)"/>
      <use xlink:href="#CMR17-61" transform="translate(271.668636 0) scale(0.996264)"/>
      <use xlink:href="#CMR17-63" transform="translate(317.359113 0) scale(0.996264)"/>
      <use xlink:href="#CMR17-74" transform="translate(357.844773 0) scale(0.996264)"/>
      <use xlink:href="#CMR17-6f" transform="translate(393.125541 0) scale(0.996264)"/>
      <use xlink:href="#CMR17-72" transform="translate(438.816018 0) scale(0.996264)"/>
      <use xlink:href="#CMMI12-42" transform="translate(504.172752 0) scale(0.996264)"/>
      <use xlink:href="#CMMI12-6c" transform="translate(583.308276 0) scale(0.996264)"/>
      <use xlink:href="#CMR17-2f" transform="translate(644.632646 0) scale(0.996264)"/>
      <use xlink:href="#CMR17-54" transform="translate(720.399089 0) scale(0.996264)"/>
      <use xlink:href="#CMR17-6d" transform="translate(786.90897 0) scale(0.996264)"/>
     </g>
    </g>
   </g>
   <g id="line2d_23">
    <path d="M 75.161993 177.448444 
L 78.72638 167.833917 
L 82.290766 158.784059 
L 85.855153 150.27525 
L 89.41954 142.284385 
L 92.983927 134.78888 
L 96.548314 127.766668 
L 100.1127 121.196198 
L 103.677087 115.056439 
L 107.241474 109.326878 
L 110.805861 103.987518 
L 114.370248 99.018882 
L 117.934634 94.40201 
L 121.499021 90.118458 
L 125.063408 86.150304 
L 128.627795 82.48014 
L 132.192182 79.091079 
L 135.756568 75.966749 
L 139.320955 73.091297 
L 142.885342 70.44939 
L 146.449729 68.026209 
L 150.014115 65.807456 
L 153.578502 63.779349 
L 157.142889 61.928626 
L 160.707276 60.24254 
L 164.271663 58.708865 
L 167.836049 57.31589 
L 171.400436 56.052424 
L 174.964823 54.907792 
L 178.52921 53.87184 
L 182.093597 52.934928 
L 185.657983 52.087937 
L 189.22237 51.322264 
L 192.786757 50.629825 
L 196.351144 50.003053 
L 199.915531 49.434899 
L 203.479917 48.918833 
L 207.044304 48.448842 
L 210.608691 48.01943 
L 214.173078 47.625621 
L 217.737465 47.262956 
L 221.301851 46.927492 
L 224.866238 46.615807 
L 228.430625 46.324995 
L 231.995012 46.052668 
L 235.559399 45.796956 
L 239.123785 45.556508 
L 242.688172 45.330489 
L 246.252559 45.118583 
L 249.816946 44.920993 
L 253.381332 44.738437 
L 256.945719 44.572153 
L 260.510106 44.423896 
L 264.074493 44.29594 
L 267.63888 44.191076 
L 271.203266 44.112613 
L 274.767653 44.064378 
L 278.33204 44.050716 
L 281.896427 44.076489 
L 285.460814 44.147078 
L 289.0252 44.268382 
L 292.589587 44.446816 
L 296.153974 44.689316 
L 299.718361 45.003333 
L 303.282748 45.396837 
L 306.847134 45.878316 
L 310.411521 46.456776 
L 313.975908 47.141741 
L 317.540295 47.943252 
L 321.104682 48.871869 
L 324.669068 49.938669 
L 328.233455 51.155248 
L 331.797842 52.533717 
L 335.362229 54.086709 
L 338.926616 55.827373 
L 342.491002 57.769374 
L 346.055389 59.926899 
L 349.619776 62.314648 
L 353.184163 64.947844 
L 356.74855 67.842223 
L 360.312936 71.014043 
L 363.877323 74.480077 
L 367.44171 78.257617 
L 371.006097 82.364474 
L 374.570483 86.818975 
L 378.13487 91.639965 
L 381.699257 96.846809 
L 385.263644 102.459387 
L 388.828031 108.498099 
L 392.392417 114.983863 
L 395.956804 121.938112 
L 399.521191 129.382801 
L 403.085578 137.340399 
L 406.649965 145.833897 
L 410.214351 154.886799 
L 413.778738 164.523132 
L 417.343125 174.767437 
L 420.907512 185.644774 
L 424.471899 197.180723 
L 428.036285 209.401378 
" clip-path="url(#p921dd5db2a)" style="fill: none; stroke: #1f77b4; stroke-width: 1.5; stroke-linecap: square"/>
   </g>
   <g id="line2d_24">
    <path d="M 75.161993 281.273271 
L 78.72638 266.855305 
L 82.290766 253.220727 
L 85.855153 240.339899 
L 89.41954 228.183781 
L 92.983927 216.723925 
L 96.548314 205.93248 
L 100.1127 195.78219 
L 103.677087 186.246394 
L 107.241474 177.299027 
L 110.805861 168.914619 
L 114.370248 161.068294 
L 117.934634 153.735773 
L 121.499021 146.893371 
L 125.063408 140.518 
L 128.627795 134.587164 
L 132.192182 129.078967 
L 135.756568 123.972104 
L 139.320955 119.245867 
L 142.885342 114.880144 
L 146.449729 110.855417 
L 150.014115 107.152764 
L 153.578502 103.753858 
L 157.142889 100.640966 
L 160.707276 97.796954 
L 164.271663 95.205279 
L 167.836049 92.849996 
L 171.400436 90.715754 
L 174.964823 88.787797 
L 178.52921 87.051967 
L 182.093597 85.494697 
L 185.657983 84.103019 
L 189.22237 82.864558 
L 192.786757 81.767535 
L 196.351144 80.800766 
L 199.915531 79.953664 
L 203.479917 79.216235 
L 207.044304 78.57908 
L 210.608691 78.033399 
L 214.173078 77.570982 
L 217.737465 77.184218 
L 221.301851 76.866091 
L 224.866238 76.610179 
L 228.430625 76.410655 
L 231.995012 76.262289 
L 235.559399 76.160444 
L 239.123785 76.101082 
L 242.688172 76.080755 
L 246.252559 76.096615 
L 249.816946 76.146407 
L 253.381332 76.228471 
L 256.945719 76.341744 
L 260.510106 76.485757 
L 264.074493 76.660636 
L 267.63888 76.867103 
L 271.203266 77.106475 
L 274.767653 77.380664 
L 278.33204 77.692178 
L 281.896427 78.04412 
L 285.460814 78.440188 
L 289.0252 78.884675 
L 292.589587 79.382471 
L 296.153974 79.939058 
L 299.718361 80.560516 
L 303.282748 81.25352 
L 306.847134 82.025339 
L 310.411521 82.883839 
L 313.975908 83.83748 
L 317.540295 84.895317 
L 321.104682 86.067001 
L 324.669068 87.362779 
L 328.233455 88.793492 
L 331.797842 90.370575 
L 335.362229 92.106063 
L 338.926616 94.012581 
L 342.491002 96.103352 
L 346.055389 98.392194 
L 349.619776 100.89352 
L 353.184163 103.622338 
L 356.74855 106.594252 
L 360.312936 109.825461 
L 363.877323 113.332759 
L 367.44171 117.133534 
L 371.006097 121.245773 
L 374.570483 125.688055 
L 378.13487 130.479555 
L 381.699257 135.640044 
L 385.263644 141.189886 
L 388.828031 147.150045 
L 392.392417 153.542075 
L 395.956804 160.388129 
L 399.521191 167.710952 
L 403.085578 175.533889 
L 406.649965 183.880874 
L 410.214351 192.776443 
L 413.778738 202.245722 
L 417.343125 212.314434 
L 420.907512 223.008899 
L 424.471899 234.356029 
L 428.036285 246.383335 
" clip-path="url(#p921dd5db2a)" style="fill: none; stroke: #ff7f0e; stroke-width: 1.5; stroke-linecap: square"/>
   </g>
   <g id="patch_3">
    <path d="M 57.518278 293.134399 
L 57.518278 32.189588 
" style="fill: none; stroke: #000000; stroke-width: 0.8; stroke-linejoin: miter; stroke-linecap: square"/>
   </g>
   <g id="patch_4">
    <path d="M 445.68 293.134399 
L 445.68 32.189588 
" style="fill: none; stroke: #000000; stroke-width: 0.8; stroke-linejoin: miter; stroke-linecap: square"/>
   </g>
   <g id="patch_5">
    <path d="M 57.518278 293.134399 
L 445.68 293.134399 
" style="fill: none; stroke: #000000; stroke-width: 0.8; stroke-linejoin: miter; stroke-linecap: square"/>
   </g>
   <g id="patch_6">
    <path d="M 57.518278 32.189588 
L 445.68 32.189588 
" style="fill: none; stroke: #000000; stroke-width: 0.8; stroke-linejoin: miter; stroke-linecap: square"/>
   </g>
   <g id="text_14">
    <!-- $\textrm{Force Factor $Bl$}$ -->
    <g transform="translate(197.639972 26.189588) scale(0.16 -0.16)">
     <use xlink:href="#CMR17-46" transform="scale(0.996264)"/>
     <use xlink:href="#CMR17-6f" transform="translate(52.176591 0) scale(0.996264)"/>
     <use xlink:href="#CMR17-72" transform="translate(97.867068 0) scale(0.996264)"/>
     <use xlink:href="#CMR17-63" transform="translate(133.147836 0) scale(0.996264)"/>
     <use xlink:href="#CMR17-65" transform="translate(173.633497 0) scale(0.996264)"/>
     <use xlink:href="#CMR17-46" transform="translate(244.195123 0) scale(0.996264)"/>
     <use xlink:href="#CMR17-61" transform="translate(296.371715 0) scale(0.996264)"/>
     <use xlink:href="#CMR17-63" transform="translate(342.062192 0) scale(0.996264)"/>
     <use xlink:href="#CMR17-74" transform="translate(382.547852 0) scale(0.996264)"/>
     <use xlink:href="#CMR17-6f" transform="translate(417.82862 0) scale(0.996264)"/>
     <use xlink:href="#CMR17-72" transform="translate(463.519097 0) scale(0.996264)"/>
     <use xlink:href="#CMMI12-42" transform="translate(528.875831 0) scale(0.996264)"/>
     <use xlink:href="#CMMI12-6c" transform="translate(608.011355 0) scale(0.996264)"/>
    </g>
   </g>
   <g id="legend_1">
    <g id="patch_7">
     <path d="M 181.10922 286.134399 
L 322.089058 286.134399 
Q 324.889058 286.134399 324.889058 283.334399 
L 324.889058 245.710342 
Q 324.889058 242.910342 322.089058 242.910342 
L 181.10922 242.910342 
Q 178.30922 242.910342 178.30922 245.710342 
L 178.30922 283.334399 
Q 178.30922 286.134399 181.10922 286.134399 
z
" style="fill: #ffffff; opacity: 0.8; stroke: #cccccc; stroke-linejoin: miter"/>
    </g>
    <g id="line2d_25">
     <path d="M 183.90922 253.410342 
L 197.90922 253.410342 
L 211.90922 253.410342 
" style="fill: none; stroke: #1f77b4; stroke-width: 1.5; stroke-linecap: square"/>
    </g>
    <g id="text_15">
     <!-- Python -->
     <g transform="translate(223.10922 258.310342) scale(0.14 -0.14)">
      <defs>
       <path id="CMSS17-50" d="M 2106 1856 
C 2874 1856 3501 2447 3501 3139 
C 3501 3818 2899 4416 2067 4416 
L 570 4416 
L 570 0 
L 1107 0 
L 1107 1856 
L 2106 1856 
z
M 1926 4057 
C 2669 4057 2995 3598 2995 3139 
C 2995 2711 2694 2227 1926 2227 
L 1094 2227 
L 1094 4057 
L 1926 4057 
z
" transform="scale(0.015625)"/>
       <path id="CMSS17-79" d="M 2675 2752 
L 2176 2752 
C 1632 1293 1446 701 1434 383 
L 1427 383 
C 1408 695 1126 1459 902 2006 
L 602 2752 
L 83 2752 
L 1216 14 
C 1146 -177 1043 -464 1011 -527 
C 870 -884 774 -884 672 -884 
C 646 -884 442 -877 211 -807 
L 250 -1229 
C 410 -1261 570 -1280 685 -1280 
C 845 -1280 1165 -1280 1459 -495 
L 2675 2752 
z
" transform="scale(0.015625)"/>
       <path id="CMSS17-74" d="M 1069 2380 
L 1901 2380 
L 1901 2752 
L 1069 2752 
L 1069 3520 
L 614 3520 
L 614 2752 
L 109 2752 
L 109 2380 
L 602 2380 
L 602 751 
C 602 384 685 -64 1107 -64 
C 1427 -64 1722 25 2003 172 
L 1901 551 
C 1747 416 1562 339 1363 339 
C 1082 339 1069 699 1069 860 
L 1069 2380 
z
" transform="scale(0.015625)"/>
       <path id="CMSS17-68" d="M 2618 1878 
C 2618 2283 2522 2816 1798 2816 
C 1395 2816 1133 2617 947 2399 
L 947 4416 
L 474 4416 
L 474 0 
L 960 0 
L 960 1556 
C 960 1962 1114 2425 1549 2425 
C 2112 2425 2131 2045 2131 1826 
L 2131 0 
L 2618 0 
L 2618 1878 
z
" transform="scale(0.015625)"/>
       <path id="CMSS17-6f" d="M 2829 1356 
C 2829 2175 2221 2816 1504 2816 
C 768 2816 173 2156 173 1356 
C 173 544 787 -64 1498 -64 
C 2227 -64 2829 563 2829 1356 
z
M 1504 339 
C 1050 339 659 710 659 1407 
C 659 2150 1114 2425 1498 2425 
C 1914 2425 2342 2124 2342 1407 
C 2342 684 1926 339 1504 339 
z
" transform="scale(0.015625)"/>
       <path id="CMSS17-6e" d="M 2618 1878 
C 2618 2283 2522 2816 1798 2816 
C 1389 2816 1120 2604 941 2386 
L 941 2783 
L 474 2783 
L 474 0 
L 960 0 
L 960 1556 
C 960 1962 1114 2425 1549 2425 
C 2112 2425 2131 2045 2131 1826 
L 2131 0 
L 2618 0 
L 2618 1878 
z
" transform="scale(0.015625)"/>
      </defs>
      <use xlink:href="#CMSS17-50" transform="scale(0.996264)"/>
      <use xlink:href="#CMSS17-79" transform="translate(59.735586 0) scale(0.996264)"/>
      <use xlink:href="#CMSS17-74" transform="translate(102.735728 0) scale(0.996264)"/>
      <use xlink:href="#CMSS17-68" transform="translate(136.567295 0) scale(0.996264)"/>
      <use xlink:href="#CMSS17-6f" transform="translate(184.772238 0) scale(0.996264)"/>
      <use xlink:href="#CMSS17-6e" transform="translate(231.615861 0) scale(0.996264)"/>
     </g>
    </g>
    <g id="line2d_26">
     <path d="M 183.90922 272.922371 
L 197.90922 272.922371 
L 211.90922 272.922371 
" style="fill: none; stroke: #ff7f0e; stroke-width: 1.5; stroke-linecap: square"/>
    </g>
    <g id="text_16">
     <!-- Klippel 4th order -->
     <g transform="translate(223.10922 277.822371) scale(0.14 -0.14)">
      <defs>
       <path id="CMSS17-4b" d="M 2234 2665 
L 3827 4416 
L 3213 4416 
L 1101 2106 
L 1101 4416 
L 563 4416 
L 563 0 
L 1101 0 
L 1101 1431 
L 1875 2277 
L 3315 0 
L 3910 0 
L 2234 2665 
z
" transform="scale(0.015625)"/>
       <path id="CMSS17-6c" d="M 947 4416 
L 474 4416 
L 474 0 
L 947 0 
L 947 4416 
z
" transform="scale(0.015625)"/>
       <path id="CMSS17-69" d="M 979 4224 
L 442 4224 
L 442 3686 
L 979 3686 
L 979 4224 
z
M 947 2752 
L 474 2752 
L 474 0 
L 947 0 
L 947 2752 
z
" transform="scale(0.015625)"/>
       <path id="CMSS17-70" d="M 966 275 
C 1178 70 1466 -64 1773 -64 
C 2368 -64 2880 553 2880 1382 
C 2880 2147 2496 2816 1946 2816 
C 1626 2816 1242 2700 954 2470 
L 954 2764 
L 480 2764 
L 480 -1280 
L 966 -1280 
L 966 275 
z
M 966 2088 
C 1018 2166 1235 2412 1587 2412 
C 2035 2412 2394 1946 2394 1382 
C 2394 741 1958 326 1530 326 
C 1402 326 1267 358 1139 468 
C 966 624 966 721 966 812 
L 966 2088 
z
" transform="scale(0.015625)"/>
       <path id="CMSS17-65" d="M 2502 1375 
C 2502 1587 2490 2001 2285 2347 
C 2061 2713 1696 2816 1421 2816 
C 755 2816 192 2184 192 1363 
C 192 579 774 -64 1510 -64 
C 1798 -64 2150 19 2470 249 
C 2470 275 2458 414 2451 421 
C 2451 433 2432 629 2432 655 
C 2125 408 1773 326 1517 326 
C 1107 326 666 667 646 1375 
L 2502 1375 
z
M 698 1728 
C 781 2086 1062 2425 1421 2425 
C 1517 2425 1965 2412 2080 1728 
L 698 1728 
z
" transform="scale(0.015625)"/>
       <path id="CMSS17-34" d="M 2253 1088 
L 2835 1088 
L 2835 1478 
L 2253 1478 
L 2253 4224 
L 1690 4224 
L 166 1478 
L 166 1088 
L 1747 1088 
L 1747 0 
L 2253 0 
L 2253 1088 
z
M 659 1478 
C 1030 2139 1766 3474 1766 3927 
L 1766 1478 
L 659 1478 
z
" transform="scale(0.015625)"/>
       <path id="CMSS17-72" d="M 954 1369 
C 954 1974 1395 2379 1958 2392 
L 1958 2816 
C 1549 2809 1165 2604 934 2270 
L 934 2783 
L 480 2783 
L 480 0 
L 954 0 
L 954 1369 
z
" transform="scale(0.015625)"/>
       <path id="CMSS17-64" d="M 2611 4416 
L 2138 4416 
L 2138 2495 
C 1939 2662 1613 2816 1254 2816 
C 672 2816 211 2179 211 1375 
C 211 572 666 -64 1235 -64 
C 1677 -64 1971 172 2125 307 
L 2125 -13 
L 2611 -13 
L 2611 4416 
z
M 2125 851 
C 2125 760 2125 663 1926 488 
C 1798 378 1645 326 1498 326 
C 1152 326 698 585 698 1369 
C 698 2185 1210 2425 1562 2425 
C 1798 2425 1990 2308 2125 2114 
L 2125 851 
z
" transform="scale(0.015625)"/>
      </defs>
      <use xlink:href="#CMSS17-4b" transform="scale(0.996264)"/>
      <use xlink:href="#CMSS17-6c" transform="translate(64.820294 0) scale(0.996264)"/>
      <use xlink:href="#CMSS17-69" transform="translate(87.001017 0) scale(0.996264)"/>
      <use xlink:href="#CMSS17-70" transform="translate(109.18174 0) scale(0.996264)"/>
      <use xlink:href="#CMSS17-70" transform="translate(157.386683 0) scale(0.996264)"/>
      <use xlink:href="#CMSS17-65" transform="translate(208.194065 0) scale(0.996264)"/>
      <use xlink:href="#CMSS17-6c" transform="translate(249.832887 0) scale(0.996264)"/>
      <use xlink:href="#CMSS17-34" transform="translate(303.242723 0) scale(0.996264)"/>
      <use xlink:href="#CMSS17-74" transform="translate(350.086346 0) scale(0.996264)"/>
      <use xlink:href="#CMSS17-68" transform="translate(383.917913 0) scale(0.996264)"/>
      <use xlink:href="#CMSS17-6f" transform="translate(463.351969 0) scale(0.996264)"/>
      <use xlink:href="#CMSS17-72" transform="translate(507.593138 0) scale(0.996264)"/>
      <use xlink:href="#CMSS17-64" transform="translate(539.502911 0) scale(0.996264)"/>
      <use xlink:href="#CMSS17-65" transform="translate(587.707854 0) scale(0.996264)"/>
      <use xlink:href="#CMSS17-72" transform="translate(629.346676 0) scale(0.996264)"/>
     </g>
    </g>
   </g>
  </g>
 </g>
 <defs>
  <clipPath id="p921dd5db2a">
   <rect x="57.518278" y="32.189588" width="388.161722" height="260.944811"/>
  </clipPath>
 </defs>
</svg>
