<?xml version="1.0" encoding="utf-8" standalone="no"?>
<!DOCTYPE svg PUBLIC "-//W3C//DTD SVG 1.1//EN"
  "http://www.w3.org/Graphics/SVG/1.1/DTD/svg11.dtd">
<svg xmlns:xlink="http://www.w3.org/1999/xlink" width="848.16pt" height="416.16pt" viewBox="0 0 848.16 416.16" xmlns="http://www.w3.org/2000/svg" version="1.1">
 <metadata>
  <rdf:RDF xmlns:dc="http://purl.org/dc/elements/1.1/" xmlns:cc="http://creativecommons.org/ns#" xmlns:rdf="http://www.w3.org/1999/02/22-rdf-syntax-ns#">
   <cc:Work>
    <dc:type rdf:resource="http://purl.org/dc/dcmitype/StillImage"/>
    <dc:date>2026-01-16T10:27:08.537691</dc:date>
    <dc:format>image/svg+xml</dc:format>
    <dc:creator>
     <cc:Agent>
      <dc:title>Matplotlib v3.9.2, https://matplotlib.org/</dc:title>
     </cc:Agent>
    </dc:creator>
   </cc:Work>
  </rdf:RDF>
 </metadata>
 <defs>
  <style type="text/css">*{stroke-linejoin: round; stroke-linecap: butt}</style>
 </defs>
 <g id="figure_1">
  <g id="patch_1">
   <path d="M 0 416.16 
L 848.16 416.16 
L 848.16 0 
L 0 0 
z
" style="fill: #ffffff"/>
  </g>
  <g id="axes_1">
   <g id="patch_2">
    <path d="M 61.602031 371.614399 
L 831.622898 371.614399 
L 831.622898 27.590463 
L 61.602031 27.590463 
z
" style="fill: #ffffff"/>
   </g>
   <g id="matplotlib.axis_1">
    <g id="xtick_1">
     <g id="line2d_1">
      <path d="M 261.019397 371.614399 
L 261.019397 27.590463 
" clip-path="url(#pc018551e1d)" style="fill: none; stroke-dasharray: 2.59,1.12; stroke-dashoffset: 0; stroke: #b0b0b0; stroke-width: 0.7"/>
     </g>
     <g id="line2d_2">
      <defs>
       <path id="m4322aef79e" d="M 0 0 
L 0 3.5 
" style="stroke: #000000; stroke-width: 0.8"/>
      </defs>
      <g>
       <use xlink:href="#m4322aef79e" x="261.019397" y="371.614399" style="stroke: #000000; stroke-width: 0.8"/>
      </g>
     </g>
     <g id="text_1">
      <!-- $\mathdefault{10^{2}}$ -->
      <g transform="translate(251.682295 388.300275) scale(0.14 -0.14)">
       <defs>
        <path id="CMR17-31" d="M 1702 4083 
C 1702 4217 1696 4224 1606 4224 
C 1357 3927 979 3833 621 3820 
C 602 3820 570 3820 563 3808 
C 557 3795 557 3782 557 3648 
C 755 3648 1088 3686 1344 3839 
L 1344 467 
C 1344 243 1331 166 781 166 
L 589 166 
L 589 0 
C 896 6 1216 12 1523 12 
C 1830 12 2150 6 2458 0 
L 2458 166 
L 2266 166 
C 1715 166 1702 236 1702 467 
L 1702 4083 
z
" transform="scale(0.015625)"/>
        <path id="CMR17-30" d="M 2688 2038 
C 2688 2430 2682 3099 2413 3613 
C 2176 4063 1798 4224 1466 4224 
C 1158 4224 768 4082 525 3620 
C 269 3137 243 2539 243 2038 
C 243 1671 250 1112 448 623 
C 723 -39 1216 -128 1466 -128 
C 1760 -128 2208 -7 2470 604 
C 2662 1048 2688 1568 2688 2038 
z
M 1466 -26 
C 1056 -26 813 328 723 816 
C 653 1196 653 1749 653 2109 
C 653 2604 653 3015 736 3407 
C 858 3954 1216 4121 1466 4121 
C 1728 4121 2067 3947 2189 3420 
C 2272 3054 2278 2623 2278 2109 
C 2278 1691 2278 1176 2202 797 
C 2067 96 1690 -26 1466 -26 
z
" transform="scale(0.015625)"/>
        <path id="CMR17-32" d="M 2669 990 
L 2554 990 
C 2490 537 2438 460 2413 422 
C 2381 371 1920 371 1830 371 
L 602 371 
C 832 620 1280 1073 1824 1596 
C 2214 1966 2669 2400 2669 3033 
C 2669 3788 2067 4224 1395 4224 
C 691 4224 262 3603 262 3027 
C 262 2777 448 2745 525 2745 
C 589 2745 781 2783 781 3007 
C 781 3206 614 3264 525 3264 
C 486 3264 448 3257 422 3244 
C 544 3788 915 4057 1306 4057 
C 1862 4057 2227 3616 2227 3033 
C 2227 2477 1901 1998 1536 1583 
L 262 147 
L 262 0 
L 2515 0 
L 2669 990 
z
" transform="scale(0.015625)"/>
       </defs>
       <use xlink:href="#CMR17-31" transform="scale(0.996264)"/>
       <use xlink:href="#CMR17-30" transform="translate(45.690477 0) scale(0.996264)"/>
       <use xlink:href="#CMR17-32" transform="translate(91.380954 36.153639) scale(0.697382)"/>
      </g>
     </g>
    </g>
    <g id="xtick_2">
     <g id="line2d_3">
      <path d="M 546.321148 371.614399 
L 546.321148 27.590463 
" clip-path="url(#pc018551e1d)" style="fill: none; stroke-dasharray: 2.59,1.12; stroke-dashoffset: 0; stroke: #b0b0b0; stroke-width: 0.7"/>
     </g>
     <g id="line2d_4">
      <g>
       <use xlink:href="#m4322aef79e" x="546.321148" y="371.614399" style="stroke: #000000; stroke-width: 0.8"/>
      </g>
     </g>
     <g id="text_2">
      <!-- $\mathdefault{10^{3}}$ -->
      <g transform="translate(536.984046 388.300275) scale(0.14 -0.14)">
       <defs>
        <path id="CMR17-33" d="M 1414 2176 
C 1984 2176 2234 1673 2234 1094 
C 2234 322 1824 25 1453 25 
C 1114 25 563 193 390 691 
C 422 678 454 678 486 678 
C 640 678 755 780 755 947 
C 755 1132 614 1216 486 1216 
C 378 1216 211 1164 211 927 
C 211 335 787 -128 1466 -128 
C 2176 -128 2720 432 2720 1087 
C 2720 1718 2208 2176 1600 2246 
C 2086 2347 2554 2776 2554 3353 
C 2554 3856 2048 4224 1472 4224 
C 890 4224 378 3862 378 3347 
C 378 3123 544 3084 627 3084 
C 762 3084 877 3167 877 3334 
C 877 3500 762 3584 627 3584 
C 602 3584 570 3584 544 3571 
C 730 3999 1235 4076 1459 4076 
C 1683 4076 2106 3966 2106 3347 
C 2106 3167 2080 2851 1862 2574 
C 1670 2329 1453 2316 1242 2297 
C 1210 2297 1062 2284 1037 2284 
C 992 2278 966 2272 966 2227 
C 966 2182 973 2176 1101 2176 
L 1414 2176 
z
" transform="scale(0.015625)"/>
       </defs>
       <use xlink:href="#CMR17-31" transform="scale(0.996264)"/>
       <use xlink:href="#CMR17-30" transform="translate(45.690477 0) scale(0.996264)"/>
       <use xlink:href="#CMR17-33" transform="translate(91.380954 36.153639) scale(0.697382)"/>
      </g>
     </g>
    </g>
    <g id="xtick_3">
     <g id="line2d_5">
      <path d="M 831.622898 371.614399 
L 831.622898 27.590463 
" clip-path="url(#pc018551e1d)" style="fill: none; stroke-dasharray: 2.59,1.12; stroke-dashoffset: 0; stroke: #b0b0b0; stroke-width: 0.7"/>
     </g>
     <g id="line2d_6">
      <g>
       <use xlink:href="#m4322aef79e" x="831.622898" y="371.614399" style="stroke: #000000; stroke-width: 0.8"/>
      </g>
     </g>
     <g id="text_3">
      <!-- $\mathdefault{10^{4}}$ -->
      <g transform="translate(822.285796 388.300275) scale(0.14 -0.14)">
       <defs>
        <path id="CMR17-34" d="M 2150 4147 
C 2150 4281 2144 4288 2029 4288 
L 128 1254 
L 128 1088 
L 1779 1088 
L 1779 460 
C 1779 230 1766 166 1318 166 
L 1197 166 
L 1197 0 
C 1402 12 1747 12 1965 12 
C 2182 12 2528 12 2733 0 
L 2733 166 
L 2611 166 
C 2163 166 2150 230 2150 460 
L 2150 1088 
L 2803 1088 
L 2803 1254 
L 2150 1254 
L 2150 4147 
z
M 1798 3723 
L 1798 1254 
L 256 1254 
L 1798 3723 
z
" transform="scale(0.015625)"/>
       </defs>
       <use xlink:href="#CMR17-31" transform="scale(0.996264)"/>
       <use xlink:href="#CMR17-30" transform="translate(45.690477 0) scale(0.996264)"/>
       <use xlink:href="#CMR17-34" transform="translate(91.380954 36.153639) scale(0.697382)"/>
      </g>
     </g>
    </g>
    <g id="xtick_4">
     <g id="line2d_7">
      <path d="M 61.602031 371.614399 
L 61.602031 27.590463 
" clip-path="url(#pc018551e1d)" style="fill: none; stroke-dasharray: 2.59,1.12; stroke-dashoffset: 0; stroke: #b0b0b0; stroke-width: 0.7"/>
     </g>
     <g id="line2d_8">
      <defs>
       <path id="m0183737b76" d="M 0 0 
L 0 2 
" style="stroke: #000000; stroke-width: 0.6"/>
      </defs>
      <g>
       <use xlink:href="#m0183737b76" x="61.602031" y="371.614399" style="stroke: #000000; stroke-width: 0.6"/>
      </g>
     </g>
    </g>
    <g id="xtick_5">
     <g id="line2d_9">
      <path d="M 111.841176 371.614399 
L 111.841176 27.590463 
" clip-path="url(#pc018551e1d)" style="fill: none; stroke-dasharray: 2.59,1.12; stroke-dashoffset: 0; stroke: #b0b0b0; stroke-width: 0.7"/>
     </g>
     <g id="line2d_10">
      <g>
       <use xlink:href="#m0183737b76" x="111.841176" y="371.614399" style="stroke: #000000; stroke-width: 0.6"/>
      </g>
     </g>
    </g>
    <g id="xtick_6">
     <g id="line2d_11">
      <path d="M 147.486416 371.614399 
L 147.486416 27.590463 
" clip-path="url(#pc018551e1d)" style="fill: none; stroke-dasharray: 2.59,1.12; stroke-dashoffset: 0; stroke: #b0b0b0; stroke-width: 0.7"/>
     </g>
     <g id="line2d_12">
      <g>
       <use xlink:href="#m0183737b76" x="147.486416" y="371.614399" style="stroke: #000000; stroke-width: 0.6"/>
      </g>
     </g>
    </g>
    <g id="xtick_7">
     <g id="line2d_13">
      <path d="M 175.135012 371.614399 
L 175.135012 27.590463 
" clip-path="url(#pc018551e1d)" style="fill: none; stroke-dasharray: 2.59,1.12; stroke-dashoffset: 0; stroke: #b0b0b0; stroke-width: 0.7"/>
     </g>
     <g id="line2d_14">
      <g>
       <use xlink:href="#m0183737b76" x="175.135012" y="371.614399" style="stroke: #000000; stroke-width: 0.6"/>
      </g>
     </g>
    </g>
    <g id="xtick_8">
     <g id="line2d_15">
      <path d="M 197.72556 371.614399 
L 197.72556 27.590463 
" clip-path="url(#pc018551e1d)" style="fill: none; stroke-dasharray: 2.59,1.12; stroke-dashoffset: 0; stroke: #b0b0b0; stroke-width: 0.7"/>
     </g>
     <g id="line2d_16">
      <g>
       <use xlink:href="#m0183737b76" x="197.72556" y="371.614399" style="stroke: #000000; stroke-width: 0.6"/>
      </g>
     </g>
    </g>
    <g id="xtick_9">
     <g id="line2d_17">
      <path d="M 216.825597 371.614399 
L 216.825597 27.590463 
" clip-path="url(#pc018551e1d)" style="fill: none; stroke-dasharray: 2.59,1.12; stroke-dashoffset: 0; stroke: #b0b0b0; stroke-width: 0.7"/>
     </g>
     <g id="line2d_18">
      <g>
       <use xlink:href="#m0183737b76" x="216.825597" y="371.614399" style="stroke: #000000; stroke-width: 0.6"/>
      </g>
     </g>
    </g>
    <g id="xtick_10">
     <g id="line2d_19">
      <path d="M 233.370801 371.614399 
L 233.370801 27.590463 
" clip-path="url(#pc018551e1d)" style="fill: none; stroke-dasharray: 2.59,1.12; stroke-dashoffset: 0; stroke: #b0b0b0; stroke-width: 0.7"/>
     </g>
     <g id="line2d_20">
      <g>
       <use xlink:href="#m0183737b76" x="233.370801" y="371.614399" style="stroke: #000000; stroke-width: 0.6"/>
      </g>
     </g>
    </g>
    <g id="xtick_11">
     <g id="line2d_21">
      <path d="M 247.964705 371.614399 
L 247.964705 27.590463 
" clip-path="url(#pc018551e1d)" style="fill: none; stroke-dasharray: 2.59,1.12; stroke-dashoffset: 0; stroke: #b0b0b0; stroke-width: 0.7"/>
     </g>
     <g id="line2d_22">
      <g>
       <use xlink:href="#m0183737b76" x="247.964705" y="371.614399" style="stroke: #000000; stroke-width: 0.6"/>
      </g>
     </g>
    </g>
    <g id="xtick_12">
     <g id="line2d_23">
      <path d="M 346.903782 371.614399 
L 346.903782 27.590463 
" clip-path="url(#pc018551e1d)" style="fill: none; stroke-dasharray: 2.59,1.12; stroke-dashoffset: 0; stroke: #b0b0b0; stroke-width: 0.7"/>
     </g>
     <g id="line2d_24">
      <g>
       <use xlink:href="#m0183737b76" x="346.903782" y="371.614399" style="stroke: #000000; stroke-width: 0.6"/>
      </g>
     </g>
    </g>
    <g id="xtick_13">
     <g id="line2d_25">
      <path d="M 397.142926 371.614399 
L 397.142926 27.590463 
" clip-path="url(#pc018551e1d)" style="fill: none; stroke-dasharray: 2.59,1.12; stroke-dashoffset: 0; stroke: #b0b0b0; stroke-width: 0.7"/>
     </g>
     <g id="line2d_26">
      <g>
       <use xlink:href="#m0183737b76" x="397.142926" y="371.614399" style="stroke: #000000; stroke-width: 0.6"/>
      </g>
     </g>
    </g>
    <g id="xtick_14">
     <g id="line2d_27">
      <path d="M 432.788166 371.614399 
L 432.788166 27.590463 
" clip-path="url(#pc018551e1d)" style="fill: none; stroke-dasharray: 2.59,1.12; stroke-dashoffset: 0; stroke: #b0b0b0; stroke-width: 0.7"/>
     </g>
     <g id="line2d_28">
      <g>
       <use xlink:href="#m0183737b76" x="432.788166" y="371.614399" style="stroke: #000000; stroke-width: 0.6"/>
      </g>
     </g>
    </g>
    <g id="xtick_15">
     <g id="line2d_29">
      <path d="M 460.436763 371.614399 
L 460.436763 27.590463 
" clip-path="url(#pc018551e1d)" style="fill: none; stroke-dasharray: 2.59,1.12; stroke-dashoffset: 0; stroke: #b0b0b0; stroke-width: 0.7"/>
     </g>
     <g id="line2d_30">
      <g>
       <use xlink:href="#m0183737b76" x="460.436763" y="371.614399" style="stroke: #000000; stroke-width: 0.6"/>
      </g>
     </g>
    </g>
    <g id="xtick_16">
     <g id="line2d_31">
      <path d="M 483.027311 371.614399 
L 483.027311 27.590463 
" clip-path="url(#pc018551e1d)" style="fill: none; stroke-dasharray: 2.59,1.12; stroke-dashoffset: 0; stroke: #b0b0b0; stroke-width: 0.7"/>
     </g>
     <g id="line2d_32">
      <g>
       <use xlink:href="#m0183737b76" x="483.027311" y="371.614399" style="stroke: #000000; stroke-width: 0.6"/>
      </g>
     </g>
    </g>
    <g id="xtick_17">
     <g id="line2d_33">
      <path d="M 502.127347 371.614399 
L 502.127347 27.590463 
" clip-path="url(#pc018551e1d)" style="fill: none; stroke-dasharray: 2.59,1.12; stroke-dashoffset: 0; stroke: #b0b0b0; stroke-width: 0.7"/>
     </g>
     <g id="line2d_34">
      <g>
       <use xlink:href="#m0183737b76" x="502.127347" y="371.614399" style="stroke: #000000; stroke-width: 0.6"/>
      </g>
     </g>
    </g>
    <g id="xtick_18">
     <g id="line2d_35">
      <path d="M 518.672551 371.614399 
L 518.672551 27.590463 
" clip-path="url(#pc018551e1d)" style="fill: none; stroke-dasharray: 2.59,1.12; stroke-dashoffset: 0; stroke: #b0b0b0; stroke-width: 0.7"/>
     </g>
     <g id="line2d_36">
      <g>
       <use xlink:href="#m0183737b76" x="518.672551" y="371.614399" style="stroke: #000000; stroke-width: 0.6"/>
      </g>
     </g>
    </g>
    <g id="xtick_19">
     <g id="line2d_37">
      <path d="M 533.266455 371.614399 
L 533.266455 27.590463 
" clip-path="url(#pc018551e1d)" style="fill: none; stroke-dasharray: 2.59,1.12; stroke-dashoffset: 0; stroke: #b0b0b0; stroke-width: 0.7"/>
     </g>
     <g id="line2d_38">
      <g>
       <use xlink:href="#m0183737b76" x="533.266455" y="371.614399" style="stroke: #000000; stroke-width: 0.6"/>
      </g>
     </g>
    </g>
    <g id="xtick_20">
     <g id="line2d_39">
      <path d="M 632.205532 371.614399 
L 632.205532 27.590463 
" clip-path="url(#pc018551e1d)" style="fill: none; stroke-dasharray: 2.59,1.12; stroke-dashoffset: 0; stroke: #b0b0b0; stroke-width: 0.7"/>
     </g>
     <g id="line2d_40">
      <g>
       <use xlink:href="#m0183737b76" x="632.205532" y="371.614399" style="stroke: #000000; stroke-width: 0.6"/>
      </g>
     </g>
    </g>
    <g id="xtick_21">
     <g id="line2d_41">
      <path d="M 682.444677 371.614399 
L 682.444677 27.590463 
" clip-path="url(#pc018551e1d)" style="fill: none; stroke-dasharray: 2.59,1.12; stroke-dashoffset: 0; stroke: #b0b0b0; stroke-width: 0.7"/>
     </g>
     <g id="line2d_42">
      <g>
       <use xlink:href="#m0183737b76" x="682.444677" y="371.614399" style="stroke: #000000; stroke-width: 0.6"/>
      </g>
     </g>
    </g>
    <g id="xtick_22">
     <g id="line2d_43">
      <path d="M 718.089917 371.614399 
L 718.089917 27.590463 
" clip-path="url(#pc018551e1d)" style="fill: none; stroke-dasharray: 2.59,1.12; stroke-dashoffset: 0; stroke: #b0b0b0; stroke-width: 0.7"/>
     </g>
     <g id="line2d_44">
      <g>
       <use xlink:href="#m0183737b76" x="718.089917" y="371.614399" style="stroke: #000000; stroke-width: 0.6"/>
      </g>
     </g>
    </g>
    <g id="xtick_23">
     <g id="line2d_45">
      <path d="M 745.738513 371.614399 
L 745.738513 27.590463 
" clip-path="url(#pc018551e1d)" style="fill: none; stroke-dasharray: 2.59,1.12; stroke-dashoffset: 0; stroke: #b0b0b0; stroke-width: 0.7"/>
     </g>
     <g id="line2d_46">
      <g>
       <use xlink:href="#m0183737b76" x="745.738513" y="371.614399" style="stroke: #000000; stroke-width: 0.6"/>
      </g>
     </g>
    </g>
    <g id="xtick_24">
     <g id="line2d_47">
      <path d="M 768.329061 371.614399 
L 768.329061 27.590463 
" clip-path="url(#pc018551e1d)" style="fill: none; stroke-dasharray: 2.59,1.12; stroke-dashoffset: 0; stroke: #b0b0b0; stroke-width: 0.7"/>
     </g>
     <g id="line2d_48">
      <g>
       <use xlink:href="#m0183737b76" x="768.329061" y="371.614399" style="stroke: #000000; stroke-width: 0.6"/>
      </g>
     </g>
    </g>
    <g id="xtick_25">
     <g id="line2d_49">
      <path d="M 787.429098 371.614399 
L 787.429098 27.590463 
" clip-path="url(#pc018551e1d)" style="fill: none; stroke-dasharray: 2.59,1.12; stroke-dashoffset: 0; stroke: #b0b0b0; stroke-width: 0.7"/>
     </g>
     <g id="line2d_50">
      <g>
       <use xlink:href="#m0183737b76" x="787.429098" y="371.614399" style="stroke: #000000; stroke-width: 0.6"/>
      </g>
     </g>
    </g>
    <g id="xtick_26">
     <g id="line2d_51">
      <path d="M 803.974302 371.614399 
L 803.974302 27.590463 
" clip-path="url(#pc018551e1d)" style="fill: none; stroke-dasharray: 2.59,1.12; stroke-dashoffset: 0; stroke: #b0b0b0; stroke-width: 0.7"/>
     </g>
     <g id="line2d_52">
      <g>
       <use xlink:href="#m0183737b76" x="803.974302" y="371.614399" style="stroke: #000000; stroke-width: 0.6"/>
      </g>
     </g>
    </g>
    <g id="xtick_27">
     <g id="line2d_53">
      <path d="M 818.568206 371.614399 
L 818.568206 27.590463 
" clip-path="url(#pc018551e1d)" style="fill: none; stroke-dasharray: 2.59,1.12; stroke-dashoffset: 0; stroke: #b0b0b0; stroke-width: 0.7"/>
     </g>
     <g id="line2d_54">
      <g>
       <use xlink:href="#m0183737b76" x="818.568206" y="371.614399" style="stroke: #000000; stroke-width: 0.6"/>
      </g>
     </g>
    </g>
    <g id="text_4">
     <!-- $\textrm{Frequency $f$ / Hz}$ -->
     <g transform="translate(393.663007 405.473076) scale(0.14 -0.14)">
      <defs>
       <path id="CMR17-46" d="M 3482 4339 
L 326 4339 
L 326 4172 
C 768 4172 838 4172 838 3883 
L 838 450 
C 838 166 768 166 326 166 
L 326 0 
C 512 12 870 12 1069 12 
C 1331 12 1638 12 1901 0 
L 1901 166 
L 1760 166 
C 1274 166 1261 229 1261 456 
L 1261 2073 
L 1837 2073 
C 2432 2073 2490 1865 2490 1334 
L 2605 1334 
L 2605 2991 
L 2490 2991 
C 2490 2451 2432 2240 1837 2240 
L 1261 2240 
L 1261 3922 
C 1261 4140 1274 4172 1530 4172 
L 2355 4172 
C 3322 4172 3430 3774 3520 2920 
L 3635 2920 
L 3482 4339 
z
" transform="scale(0.015625)"/>
       <path id="CMR17-72" d="M 960 1517 
C 960 2134 1222 2713 1702 2713 
C 1747 2713 1792 2707 1837 2687 
C 1837 2687 1696 2642 1696 2475 
C 1696 2321 1818 2257 1914 2257 
C 1990 2257 2131 2302 2131 2482 
C 2131 2687 1926 2816 1709 2816 
C 1222 2816 1011 2340 947 2115 
L 941 2115 
L 941 2816 
L 198 2745 
L 198 2578 
C 576 2578 634 2540 634 2231 
L 634 443 
C 634 198 608 166 198 166 
L 198 0 
C 352 12 646 12 813 12 
C 998 12 1325 12 1498 0 
L 1498 166 
C 1037 166 960 166 960 455 
L 960 1517 
z
" transform="scale(0.015625)"/>
       <path id="CMR17-65" d="M 2438 1503 
C 2464 1529 2464 1542 2464 1606 
C 2464 2251 2118 2816 1389 2816 
C 710 2816 173 2175 173 1394 
C 173 554 781 -64 1459 -64 
C 2176 -64 2458 619 2458 755 
C 2458 800 2419 800 2406 800 
C 2362 800 2355 787 2330 709 
C 2189 270 1837 51 1504 51 
C 1229 51 954 206 781 490 
C 582 819 582 1200 582 1503 
L 2438 1503 
z
M 589 1600 
C 634 2511 1126 2713 1382 2713 
C 1818 2713 2112 2308 2118 1600 
L 589 1600 
z
" transform="scale(0.015625)"/>
       <path id="CMR17-71" d="M 2630 2816 
L 2528 2816 
L 2336 2177 
C 2189 2519 1920 2816 1491 2816 
C 838 2816 211 2228 211 1376 
C 211 529 800 -64 1440 -64 
C 1933 -64 2208 316 2291 458 
L 2291 -834 
C 2291 -1081 2266 -1114 1856 -1114 
L 1856 -1280 
C 2010 -1268 2291 -1268 2458 -1268 
C 2624 -1268 2912 -1268 3066 -1280 
L 3066 -1114 
C 2656 -1114 2630 -1088 2630 -834 
L 2630 2816 
z
M 2304 871 
C 2304 594 2074 335 2054 316 
C 1856 90 1626 38 1472 38 
C 992 38 621 652 621 1369 
C 621 2125 1043 2700 1536 2700 
C 2048 2700 2304 2112 2304 1776 
L 2304 871 
z
" transform="scale(0.015625)"/>
       <path id="CMR17-75" d="M 1882 2745 
L 1882 2579 
C 2259 2579 2317 2540 2317 2229 
L 2317 1053 
C 2317 510 2029 38 1555 38 
C 1030 38 986 355 986 691 
L 986 2816 
L 211 2745 
L 211 2579 
C 467 2579 640 2579 646 2320 
L 646 1079 
C 646 646 646 368 813 187 
C 896 103 1056 -64 1517 -64 
C 2061 -64 2272 400 2323 536 
L 2330 536 
L 2330 -64 
L 3091 -13 
L 3091 154 
C 2714 154 2656 193 2656 503 
L 2656 2816 
L 1882 2745 
z
" transform="scale(0.015625)"/>
       <path id="CMR17-6e" d="M 2656 1954 
C 2656 2282 2592 2816 1837 2816 
C 1331 2816 1069 2424 973 2166 
L 966 2166 
L 966 2816 
L 211 2745 
L 211 2578 
C 589 2578 646 2540 646 2231 
L 646 443 
C 646 198 621 166 211 166 
L 211 0 
C 365 12 646 12 813 12 
C 979 12 1267 12 1421 0 
L 1421 166 
C 1011 166 986 192 986 443 
L 986 1678 
C 986 2269 1344 2713 1792 2713 
C 2266 2713 2317 2289 2317 1980 
L 2317 443 
C 2317 198 2291 166 1882 166 
L 1882 0 
C 2035 12 2317 12 2483 12 
C 2650 12 2938 12 3091 0 
L 3091 166 
C 2682 166 2656 192 2656 443 
L 2656 1954 
z
" transform="scale(0.015625)"/>
       <path id="CMR17-63" d="M 2234 2240 
C 2112 2240 1933 2240 1933 2015 
C 1933 1836 2080 1785 2163 1785 
C 2208 1785 2394 1804 2394 2028 
C 2394 2476 1958 2816 1466 2816 
C 787 2816 211 2201 211 1379 
C 211 521 813 -64 1466 -64 
C 2259 -64 2458 676 2458 747 
C 2458 773 2451 792 2406 792 
C 2362 792 2355 786 2330 702 
C 2163 180 1798 51 1523 51 
C 1114 51 621 431 621 1385 
C 621 2358 1094 2700 1472 2700 
C 1722 2700 2093 2582 2234 2240 
z
" transform="scale(0.015625)"/>
       <path id="CMR17-79" d="M 2496 2183 
C 2656 2579 2944 2585 3034 2585 
L 3034 2752 
C 2912 2745 2752 2739 2630 2739 
C 2496 2739 2285 2739 2157 2752 
L 2157 2585 
C 2400 2566 2406 2384 2406 2332 
C 2406 2268 2394 2235 2362 2158 
L 1664 409 
L 902 2300 
C 870 2378 870 2423 870 2430 
C 870 2572 1018 2585 1171 2585 
L 1171 2752 
C 1018 2739 742 2739 582 2739 
C 410 2739 205 2739 64 2752 
L 64 2585 
C 410 2585 448 2553 531 2345 
L 1485 -31 
C 1197 -795 1030 -1242 627 -1242 
C 557 -1242 397 -1223 282 -1106 
C 429 -1093 493 -1002 493 -892 
C 493 -782 416 -685 288 -685 
C 147 -685 77 -782 77 -899 
C 77 -1158 339 -1344 627 -1344 
C 998 -1344 1229 -983 1357 -659 
L 2496 2183 
z
" transform="scale(0.015625)"/>
       <path id="CMMI12-66" d="M 2854 2566 
C 2982 2566 3034 2566 3034 2687 
C 3034 2752 2982 2752 2867 2752 
L 2349 2752 
C 2470 3398 2560 3846 2611 4051 
C 2650 4204 2784 4351 2950 4351 
C 3085 4351 3219 4294 3283 4236 
C 3034 4211 2957 4025 2957 3916 
C 2957 3788 3053 3712 3174 3712 
C 3302 3712 3494 3820 3494 4064 
C 3494 4332 3226 4480 2944 4480 
C 2669 4480 2400 4275 2272 4025 
C 2157 3801 2093 3573 1946 2752 
L 1517 2752 
C 1395 2752 1331 2752 1331 2636 
C 1331 2566 1370 2566 1498 2566 
L 1907 2566 
C 1792 1977 1530 545 1382 -132 
C 1274 -685 1178 -1152 858 -1152 
C 838 -1152 653 -1152 538 -1031 
C 864 -1005 864 -724 864 -717 
C 864 -589 768 -512 646 -512 
C 518 -512 326 -621 326 -865 
C 326 -1140 608 -1280 858 -1280 
C 1510 -1280 1779 -113 1850 203 
C 1965 691 2278 2376 2310 2566 
L 2854 2566 
z
" transform="scale(0.015625)"/>
       <path id="CMR17-2f" d="M 2605 4575 
C 2637 4658 2637 4671 2637 4684 
C 2637 4761 2579 4800 2528 4800 
C 2451 4800 2426 4748 2400 4671 
L 326 -1376 
C 294 -1460 294 -1472 294 -1485 
C 294 -1562 352 -1600 403 -1600 
C 480 -1600 506 -1549 531 -1472 
L 2605 4575 
z
" transform="scale(0.015625)"/>
       <path id="CMR17-48" d="M 3590 3898 
C 3590 4185 3661 4185 4102 4185 
L 4102 4352 
C 3917 4339 3578 4339 3379 4339 
C 3181 4339 2842 4339 2656 4352 
L 2656 4185 
C 3098 4185 3168 4185 3168 3898 
L 3168 2342 
L 1261 2342 
L 1261 3898 
C 1261 4185 1331 4185 1773 4185 
L 1773 4352 
C 1587 4339 1248 4339 1050 4339 
C 851 4339 512 4339 326 4352 
L 326 4185 
C 768 4185 838 4185 838 3898 
L 838 452 
C 838 166 768 166 326 166 
L 326 0 
C 512 12 851 12 1050 12 
C 1248 12 1587 12 1773 0 
L 1773 166 
C 1331 166 1261 166 1261 452 
L 1261 2176 
L 3168 2176 
L 3168 452 
C 3168 166 3098 166 2656 166 
L 2656 0 
C 2842 12 3181 12 3379 12 
C 3578 12 3917 12 4102 0 
L 4102 166 
C 3661 166 3590 166 3590 452 
L 3590 3898 
z
" transform="scale(0.015625)"/>
       <path id="CMR17-7a" d="M 2310 2604 
C 2362 2668 2362 2681 2362 2694 
C 2362 2752 2336 2752 2221 2752 
L 275 2752 
L 211 1760 
L 326 1760 
C 371 2380 442 2649 1178 2649 
L 1958 2649 
L 128 96 
C 128 6 134 0 269 0 
L 2291 0 
L 2381 1152 
L 2266 1152 
C 2214 441 2131 115 1350 115 
L 531 115 
L 2310 2604 
z
" transform="scale(0.015625)"/>
      </defs>
      <use xlink:href="#CMR17-46" transform="scale(0.996264)"/>
      <use xlink:href="#CMR17-72" transform="translate(52.176591 0) scale(0.996264)"/>
      <use xlink:href="#CMR17-65" transform="translate(87.457359 0) scale(0.996264)"/>
      <use xlink:href="#CMR17-71" transform="translate(127.943019 0) scale(0.996264)"/>
      <use xlink:href="#CMR17-75" transform="translate(176.235935 0) scale(0.996264)"/>
      <use xlink:href="#CMR17-65" transform="translate(227.131305 0) scale(0.996264)"/>
      <use xlink:href="#CMR17-6e" transform="translate(267.616966 0) scale(0.996264)"/>
      <use xlink:href="#CMR17-63" transform="translate(318.512335 0) scale(0.996264)"/>
      <use xlink:href="#CMR17-79" transform="translate(358.997996 0) scale(0.996264)"/>
      <use xlink:href="#CMMI12-66" transform="translate(437.366878 0) scale(0.996264)"/>
      <use xlink:href="#CMR17-2f" transform="translate(526.163149 0) scale(0.996264)"/>
      <use xlink:href="#CMR17-48" transform="translate(601.929593 0) scale(0.996264)"/>
      <use xlink:href="#CMR17-7a" transform="translate(671.002022 0) scale(0.996264)"/>
     </g>
    </g>
   </g>
   <g id="matplotlib.axis_2">
    <g id="ytick_1">
     <g id="line2d_55">
      <path d="M 61.602031 330.450143 
L 831.622898 330.450143 
" clip-path="url(#pc018551e1d)" style="fill: none; stroke-dasharray: 2.59,1.12; stroke-dashoffset: 0; stroke: #b0b0b0; stroke-width: 0.7"/>
     </g>
     <g id="line2d_56">
      <defs>
       <path id="mcc78940fd0" d="M 0 0 
L -3.5 0 
" style="stroke: #000000; stroke-width: 0.8"/>
      </defs>
      <g>
       <use xlink:href="#mcc78940fd0" x="61.602031" y="330.450143" style="stroke: #000000; stroke-width: 0.8"/>
      </g>
     </g>
     <g id="text_5">
      <!-- $\mathdefault{−80}$ -->
      <g transform="translate(30.096819 335.293081) scale(0.14 -0.14)">
       <defs>
        <path id="CMSY10-0" d="M 4218 1472 
C 4326 1472 4442 1472 4442 1600 
C 4442 1728 4326 1728 4218 1728 
L 755 1728 
C 646 1728 531 1728 531 1600 
C 531 1472 646 1472 755 1472 
L 4218 1472 
z
" transform="scale(0.015625)"/>
        <path id="CMR17-38" d="M 1741 2289 
C 2144 2494 2554 2803 2554 3298 
C 2554 3884 1990 4224 1472 4224 
C 890 4224 378 3800 378 3215 
C 378 3054 416 2777 666 2533 
C 730 2469 998 2276 1171 2154 
C 883 2006 211 1652 211 945 
C 211 282 838 -128 1459 -128 
C 2144 -128 2720 366 2720 1022 
C 2720 1607 2330 1877 2074 2051 
L 1741 2289 
z
M 902 2855 
C 851 2887 595 3086 595 3388 
C 595 3781 998 4076 1459 4076 
C 1965 4076 2336 3716 2336 3298 
C 2336 2700 1670 2359 1638 2359 
C 1632 2359 1626 2359 1574 2398 
L 902 2855 
z
M 2080 1536 
C 2176 1466 2483 1253 2483 861 
C 2483 385 2010 25 1472 25 
C 890 25 448 443 448 951 
C 448 1459 838 1884 1280 2083 
L 2080 1536 
z
" transform="scale(0.015625)"/>
       </defs>
       <use xlink:href="#CMSY10-0" transform="scale(0.996264)"/>
       <use xlink:href="#CMR17-38" transform="translate(77.487468 0) scale(0.996264)"/>
       <use xlink:href="#CMR17-30" transform="translate(123.177945 0) scale(0.996264)"/>
      </g>
     </g>
    </g>
    <g id="ytick_2">
     <g id="line2d_57">
      <path d="M 61.602031 283.738716 
L 831.622898 283.738716 
" clip-path="url(#pc018551e1d)" style="fill: none; stroke-dasharray: 2.59,1.12; stroke-dashoffset: 0; stroke: #b0b0b0; stroke-width: 0.7"/>
     </g>
     <g id="line2d_58">
      <g>
       <use xlink:href="#mcc78940fd0" x="61.602031" y="283.738716" style="stroke: #000000; stroke-width: 0.8"/>
      </g>
     </g>
     <g id="text_6">
      <!-- $\mathdefault{−70}$ -->
      <g transform="translate(30.096819 288.581654) scale(0.14 -0.14)">
       <defs>
        <path id="CMR17-37" d="M 2886 3955 
L 2886 4096 
L 1382 4096 
C 634 4096 621 4166 595 4288 
L 480 4288 
L 294 3104 
L 410 3104 
C 429 3226 474 3552 550 3673 
C 589 3724 1062 3724 1171 3724 
L 2579 3724 
L 1869 2670 
C 1395 1961 1069 1003 1069 166 
C 1069 89 1069 -128 1299 -128 
C 1530 -128 1530 89 1530 172 
L 1530 466 
C 1530 1514 1709 2204 2003 2644 
L 2886 3955 
z
" transform="scale(0.015625)"/>
       </defs>
       <use xlink:href="#CMSY10-0" transform="scale(0.996264)"/>
       <use xlink:href="#CMR17-37" transform="translate(77.487468 0) scale(0.996264)"/>
       <use xlink:href="#CMR17-30" transform="translate(123.177945 0) scale(0.996264)"/>
      </g>
     </g>
    </g>
    <g id="ytick_3">
     <g id="line2d_59">
      <path d="M 61.602031 237.027288 
L 831.622898 237.027288 
" clip-path="url(#pc018551e1d)" style="fill: none; stroke-dasharray: 2.59,1.12; stroke-dashoffset: 0; stroke: #b0b0b0; stroke-width: 0.7"/>
     </g>
     <g id="line2d_60">
      <g>
       <use xlink:href="#mcc78940fd0" x="61.602031" y="237.027288" style="stroke: #000000; stroke-width: 0.8"/>
      </g>
     </g>
     <g id="text_7">
      <!-- $\mathdefault{−60}$ -->
      <g transform="translate(30.096819 241.870227) scale(0.14 -0.14)">
       <defs>
        <path id="CMR17-36" d="M 678 2198 
C 678 3712 1395 4076 1811 4076 
C 1946 4076 2272 4049 2400 3782 
C 2298 3782 2106 3782 2106 3558 
C 2106 3385 2246 3328 2336 3328 
C 2394 3328 2566 3353 2566 3571 
C 2566 3987 2246 4224 1805 4224 
C 1043 4224 243 3411 243 2011 
C 243 257 966 -128 1478 -128 
C 2099 -128 2688 431 2688 1295 
C 2688 2101 2170 2688 1517 2688 
C 1126 2688 838 2430 678 1979 
L 678 2198 
z
M 1478 25 
C 691 25 691 1212 691 1450 
C 691 1914 909 2585 1504 2585 
C 1613 2585 1926 2585 2138 2140 
C 2253 1889 2253 1624 2253 1302 
C 2253 954 2253 696 2118 438 
C 1978 173 1773 25 1478 25 
z
" transform="scale(0.015625)"/>
       </defs>
       <use xlink:href="#CMSY10-0" transform="scale(0.996264)"/>
       <use xlink:href="#CMR17-36" transform="translate(77.487468 0) scale(0.996264)"/>
       <use xlink:href="#CMR17-30" transform="translate(123.177945 0) scale(0.996264)"/>
      </g>
     </g>
    </g>
    <g id="ytick_4">
     <g id="line2d_61">
      <path d="M 61.602031 190.315861 
L 831.622898 190.315861 
" clip-path="url(#pc018551e1d)" style="fill: none; stroke-dasharray: 2.59,1.12; stroke-dashoffset: 0; stroke: #b0b0b0; stroke-width: 0.7"/>
     </g>
     <g id="line2d_62">
      <g>
       <use xlink:href="#mcc78940fd0" x="61.602031" y="190.315861" style="stroke: #000000; stroke-width: 0.8"/>
      </g>
     </g>
     <g id="text_8">
      <!-- $\mathdefault{−50}$ -->
      <g transform="translate(30.096819 195.158799) scale(0.14 -0.14)">
       <defs>
        <path id="CMR17-35" d="M 730 3750 
C 794 3724 1056 3641 1325 3641 
C 1920 3641 2246 3961 2432 4140 
C 2432 4191 2432 4224 2394 4224 
C 2387 4224 2374 4224 2323 4198 
C 2099 4102 1837 4032 1517 4032 
C 1325 4032 1037 4055 723 4191 
C 653 4224 640 4224 634 4224 
C 602 4224 595 4217 595 4090 
L 595 2231 
C 595 2113 595 2080 659 2080 
C 691 2080 704 2093 736 2139 
C 941 2435 1222 2560 1542 2560 
C 1766 2560 2246 2415 2246 1293 
C 2246 1087 2246 716 2054 422 
C 1894 159 1645 25 1370 25 
C 947 25 518 319 403 812 
C 429 806 480 793 506 793 
C 589 793 749 838 749 1036 
C 749 1209 627 1280 506 1280 
C 358 1280 262 1190 262 1011 
C 262 454 704 -128 1382 -128 
C 2042 -128 2669 441 2669 1267 
C 2669 2054 2170 2662 1549 2662 
C 1222 2662 947 2540 730 2304 
L 730 3750 
z
" transform="scale(0.015625)"/>
       </defs>
       <use xlink:href="#CMSY10-0" transform="scale(0.996264)"/>
       <use xlink:href="#CMR17-35" transform="translate(77.487468 0) scale(0.996264)"/>
       <use xlink:href="#CMR17-30" transform="translate(123.177945 0) scale(0.996264)"/>
      </g>
     </g>
    </g>
    <g id="ytick_5">
     <g id="line2d_63">
      <path d="M 61.602031 143.604434 
L 831.622898 143.604434 
" clip-path="url(#pc018551e1d)" style="fill: none; stroke-dasharray: 2.59,1.12; stroke-dashoffset: 0; stroke: #b0b0b0; stroke-width: 0.7"/>
     </g>
     <g id="line2d_64">
      <g>
       <use xlink:href="#mcc78940fd0" x="61.602031" y="143.604434" style="stroke: #000000; stroke-width: 0.8"/>
      </g>
     </g>
     <g id="text_9">
      <!-- $\mathdefault{−40}$ -->
      <g transform="translate(30.096819 148.447372) scale(0.14 -0.14)">
       <use xlink:href="#CMSY10-0" transform="scale(0.996264)"/>
       <use xlink:href="#CMR17-34" transform="translate(77.487468 0) scale(0.996264)"/>
       <use xlink:href="#CMR17-30" transform="translate(123.177945 0) scale(0.996264)"/>
      </g>
     </g>
    </g>
    <g id="ytick_6">
     <g id="line2d_65">
      <path d="M 61.602031 96.893006 
L 831.622898 96.893006 
" clip-path="url(#pc018551e1d)" style="fill: none; stroke-dasharray: 2.59,1.12; stroke-dashoffset: 0; stroke: #b0b0b0; stroke-width: 0.7"/>
     </g>
     <g id="line2d_66">
      <g>
       <use xlink:href="#mcc78940fd0" x="61.602031" y="96.893006" style="stroke: #000000; stroke-width: 0.8"/>
      </g>
     </g>
     <g id="text_10">
      <!-- $\mathdefault{−30}$ -->
      <g transform="translate(30.096819 101.735945) scale(0.14 -0.14)">
       <use xlink:href="#CMSY10-0" transform="scale(0.996264)"/>
       <use xlink:href="#CMR17-33" transform="translate(77.487468 0) scale(0.996264)"/>
       <use xlink:href="#CMR17-30" transform="translate(123.177945 0) scale(0.996264)"/>
      </g>
     </g>
    </g>
    <g id="ytick_7">
     <g id="line2d_67">
      <path d="M 61.602031 50.181579 
L 831.622898 50.181579 
" clip-path="url(#pc018551e1d)" style="fill: none; stroke-dasharray: 2.59,1.12; stroke-dashoffset: 0; stroke: #b0b0b0; stroke-width: 0.7"/>
     </g>
     <g id="line2d_68">
      <g>
       <use xlink:href="#mcc78940fd0" x="61.602031" y="50.181579" style="stroke: #000000; stroke-width: 0.8"/>
      </g>
     </g>
     <g id="text_11">
      <!-- $\mathdefault{−20}$ -->
      <g transform="translate(30.096819 55.024517) scale(0.14 -0.14)">
       <use xlink:href="#CMSY10-0" transform="scale(0.996264)"/>
       <use xlink:href="#CMR17-32" transform="translate(77.487468 0) scale(0.996264)"/>
       <use xlink:href="#CMR17-30" transform="translate(123.177945 0) scale(0.996264)"/>
      </g>
     </g>
    </g>
    <g id="text_12">
     <!-- $\textrm{Magnitude $\left | {G}_{vu} \right |$ / dB re 1 $\frac{m/s}{V}$}$ -->
     <g transform="translate(21.287096 291.334022) rotate(-90) scale(0.14 -0.14)">
      <defs>
       <path id="CMR17-4d" d="M 1338 4249 
C 1299 4345 1293 4352 1158 4352 
L 339 4352 
L 339 4185 
C 781 4185 851 4185 851 3898 
L 851 624 
C 851 465 851 166 339 166 
L 339 0 
C 486 12 755 12 915 12 
C 1075 12 1344 12 1491 0 
L 1491 166 
C 979 166 979 465 979 624 
L 979 4159 
L 986 4159 
L 2490 102 
C 2515 38 2528 0 2579 0 
C 2630 0 2643 38 2669 102 
L 4186 4191 
L 4192 4191 
L 4192 453 
C 4192 166 4122 166 3680 166 
L 3680 0 
C 3853 12 4198 12 4384 12 
C 4570 12 4922 12 5094 0 
L 5094 166 
C 4653 166 4582 166 4582 453 
L 4582 3898 
C 4582 4185 4653 4185 5094 4185 
L 5094 4352 
L 4282 4352 
C 4147 4352 4141 4345 4102 4249 
L 2720 516 
L 1338 4249 
z
" transform="scale(0.015625)"/>
       <path id="CMR17-61" d="M 2304 1656 
C 2304 2048 2304 2275 2035 2534 
C 1798 2751 1523 2816 1306 2816 
C 800 2816 435 2408 435 1977 
C 435 1740 627 1728 666 1728 
C 749 1728 896 1779 896 1958 
C 896 2118 774 2188 666 2188 
C 640 2188 608 2182 589 2176 
C 723 2594 1069 2713 1293 2713 
C 1613 2713 1965 2421 1965 1875 
L 1965 1632 
C 1587 1619 1133 1568 774 1373 
C 371 1147 256 822 256 576 
C 256 77 832 -64 1171 -64 
C 1523 -64 1850 135 1990 505 
C 2003 219 2182 -39 2464 -39 
C 2598 -39 2938 51 2938 563 
L 2938 926 
L 2822 926 
L 2822 557 
C 2822 161 2650 109 2566 109 
C 2304 109 2304 446 2304 732 
L 2304 1656 
z
M 1965 887 
C 1965 323 1568 38 1216 38 
C 896 38 646 278 646 576 
C 646 771 730 1114 1101 1322 
C 1408 1497 1760 1523 1965 1536 
L 1965 887 
z
" transform="scale(0.015625)"/>
       <path id="CMR17-67" d="M 710 1165 
C 832 1068 1043 960 1299 960 
C 1805 960 2240 1359 2240 1895 
C 2240 2063 2189 2321 1997 2521 
C 2176 2713 2438 2777 2586 2777 
C 2611 2777 2650 2777 2682 2758 
C 2656 2751 2598 2726 2598 2623 
C 2598 2540 2656 2483 2739 2483 
C 2835 2483 2886 2547 2886 2630 
C 2886 2751 2790 2880 2586 2880 
C 2330 2880 2106 2758 1926 2591 
C 1734 2764 1504 2828 1299 2828 
C 794 2828 358 2431 358 1895 
C 358 1527 570 1294 634 1230 
C 442 1004 442 742 442 710 
C 442 544 506 300 723 166 
C 390 82 128 -184 128 -517 
C 128 -996 736 -1344 1466 -1344 
C 2170 -1344 2803 -1009 2803 -510 
C 2803 384 1856 384 1363 384 
C 1216 384 954 384 922 390 
C 723 422 589 601 589 825 
C 589 883 589 1024 710 1165 
z
M 1299 1068 
C 736 1068 736 1766 736 1895 
C 736 2024 736 2719 1299 2719 
C 1862 2719 1862 2024 1862 1895 
C 1862 1766 1862 1068 1299 1068 
z
M 1466 -1236 
C 826 -1236 384 -883 384 -517 
C 384 -311 493 -118 634 -11 
C 794 102 858 102 1293 102 
C 1818 102 2547 102 2547 -517 
C 2547 -883 2106 -1236 1466 -1236 
z
" transform="scale(0.015625)"/>
       <path id="CMR17-69" d="M 992 3961 
C 992 4102 877 4224 730 4224 
C 589 4224 467 4108 467 3961 
C 467 3820 582 3699 730 3699 
C 870 3699 992 3814 992 3961 
z
M 243 2745 
L 243 2579 
C 602 2579 653 2540 653 2231 
L 653 443 
C 653 198 627 166 218 166 
L 218 0 
C 371 12 646 12 806 12 
C 960 12 1222 12 1370 0 
L 1370 166 
C 992 166 979 205 979 436 
L 979 2816 
L 243 2745 
z
" transform="scale(0.015625)"/>
       <path id="CMR17-74" d="M 966 2585 
L 1862 2585 
L 1862 2752 
L 966 2752 
L 966 3968 
L 851 3968 
C 838 3292 614 2700 70 2687 
L 70 2585 
L 627 2585 
L 627 778 
C 627 655 627 -64 1370 -64 
C 1747 -64 1965 308 1965 784 
L 1965 1151 
L 1850 1151 
L 1850 790 
C 1850 347 1677 51 1408 51 
C 1222 51 966 179 966 765 
L 966 2585 
z
" transform="scale(0.015625)"/>
       <path id="CMR17-64" d="M 1869 4345 
L 1869 4179 
C 2246 4179 2304 4141 2304 3843 
L 2304 2371 
C 2278 2403 2016 2816 1498 2816 
C 845 2816 211 2228 211 1376 
C 211 529 806 -64 1434 -64 
C 1978 -64 2259 361 2291 406 
L 2291 -64 
L 3066 -13 
L 3066 154 
C 2688 154 2630 193 2630 503 
L 2630 4416 
L 1869 4345 
z
M 2291 762 
C 2291 568 2176 393 2029 264 
C 1811 70 1594 38 1472 38 
C 1286 38 621 135 621 1369 
C 621 2636 1363 2713 1530 2713 
C 1824 2713 2061 2545 2208 2313 
C 2291 2177 2291 2157 2291 2041 
L 2291 762 
z
" transform="scale(0.015625)"/>
       <path id="CMSY10-6a" d="M 1018 4569 
C 1018 4684 1018 4800 890 4800 
C 762 4800 762 4684 762 4569 
L 762 -1370 
C 762 -1485 762 -1600 890 -1600 
C 1018 -1600 1018 -1485 1018 -1370 
L 1018 4569 
z
" transform="scale(0.015625)"/>
       <path id="CMMI12-47" d="M 4774 4422 
C 4774 4480 4730 4480 4717 4480 
C 4704 4480 4678 4480 4627 4415 
L 4186 3887 
C 4154 3938 4026 4161 3776 4307 
C 3501 4480 3226 4480 3130 4480 
C 1760 4480 320 3093 320 1593 
C 320 546 1050 -128 2010 -128 
C 2470 -128 3053 25 3373 425 
C 3443 184 3584 12 3629 12 
C 3661 12 3667 32 3674 32 
C 3680 44 3731 266 3763 381 
L 3866 787 
C 3917 996 3942 1085 3987 1275 
C 4051 1516 4064 1535 4416 1542 
C 4442 1542 4518 1542 4518 1663 
C 4518 1728 4454 1728 4435 1728 
C 4326 1728 4205 1715 4090 1715 
L 3744 1715 
C 3475 1715 3194 1728 2931 1728 
C 2874 1728 2797 1728 2797 1612 
C 2797 1548 2848 1548 2848 1542 
L 3008 1542 
C 3514 1542 3514 1491 3514 1396 
C 3514 1390 3392 749 3270 558 
C 3027 203 2522 57 2144 57 
C 1651 57 851 311 851 1409 
C 851 1835 1005 2807 1626 3525 
C 2029 3983 2624 4294 3187 4294 
C 3942 4294 4211 3652 4211 3068 
C 4211 2966 4186 2826 4186 2738 
C 4186 2680 4250 2680 4269 2680 
C 4339 2680 4346 2687 4371 2801 
L 4774 4422 
z
" transform="scale(0.015625)"/>
       <path id="CMMI12-76" d="M 2925 2388 
C 2925 2790 2720 2816 2669 2816 
C 2515 2816 2374 2662 2374 2534 
C 2374 2458 2419 2413 2445 2388 
C 2509 2330 2675 2158 2675 1826 
C 2675 1558 2291 64 1523 64 
C 1133 64 1056 389 1056 625 
C 1056 945 1203 1392 1376 1851 
C 1478 2113 1504 2177 1504 2305 
C 1504 2573 1312 2816 998 2816 
C 410 2816 173 1890 173 1838 
C 173 1813 198 1781 243 1781 
C 301 1781 307 1807 333 1896 
C 486 2445 736 2687 979 2687 
C 1037 2687 1146 2687 1146 2477 
C 1146 2311 1075 2126 979 1883 
C 672 1066 672 868 672 715 
C 672 574 691 313 890 134 
C 1120 -64 1440 -64 1498 -64 
C 2560 -64 2925 2024 2925 2388 
z
" transform="scale(0.015625)"/>
       <path id="CMMI12-75" d="M 2182 370 
C 2266 12 2573 -64 2726 -64 
C 2931 -64 3085 70 3187 287 
C 3296 517 3379 893 3379 913 
C 3379 944 3354 970 3315 970 
C 3258 970 3251 938 3226 842 
C 3110 402 2995 64 2739 64 
C 2547 64 2547 274 2547 357 
C 2547 504 2566 568 2630 836 
C 2675 1008 2720 1181 2758 1359 
L 3021 2400 
C 3066 2560 3066 2572 3066 2591 
C 3066 2687 2989 2752 2893 2752 
C 2707 2752 2662 2591 2624 2432 
C 2560 2183 2214 810 2170 587 
C 2163 587 1914 64 1446 64 
C 1114 64 1050 351 1050 587 
C 1050 951 1229 1462 1395 1890 
C 1472 2094 1504 2177 1504 2305 
C 1504 2579 1306 2816 998 2816 
C 410 2816 173 1890 173 1838 
C 173 1813 198 1781 243 1781 
C 301 1781 307 1807 333 1896 
C 486 2445 736 2687 979 2687 
C 1043 2687 1146 2681 1146 2477 
C 1146 2311 1075 2126 979 1883 
C 698 1123 666 881 666 689 
C 666 38 1158 -64 1421 -64 
C 1830 -64 2054 217 2182 370 
z
" transform="scale(0.015625)"/>
       <path id="CMR17-42" d="M 333 4352 
L 333 4185 
C 774 4185 845 4185 845 3897 
L 845 451 
C 845 166 774 166 333 166 
L 333 0 
L 2534 0 
C 3354 0 3885 578 3885 1155 
C 3885 1726 3360 2214 2675 2259 
C 3290 2380 3718 2790 3718 3276 
C 3718 3808 3194 4352 2368 4352 
L 333 4352 
z
M 1248 2304 
L 1248 3936 
C 1248 4153 1261 4185 1517 4185 
L 2336 4185 
C 2970 4185 3251 3673 3251 3276 
C 3251 2790 2861 2304 2170 2304 
L 1248 2304 
z
M 1517 166 
C 1261 166 1248 198 1248 413 
L 1248 2201 
L 2432 2201 
C 3091 2201 3411 1624 3411 1161 
C 3411 698 3046 166 2349 166 
L 1517 166 
z
" transform="scale(0.015625)"/>
       <path id="CMMI12-6d" d="M 1318 1870 
C 1331 1909 1491 2228 1728 2432 
C 1894 2585 2112 2687 2362 2687 
C 2618 2687 2707 2496 2707 2241 
C 2707 2202 2707 2075 2630 1775 
L 2470 1117 
C 2419 925 2298 453 2285 383 
C 2259 287 2221 121 2221 95 
C 2221 6 2291 -64 2387 -64 
C 2579 -64 2611 83 2669 313 
L 3053 1838 
C 3066 1890 3398 2687 4102 2687 
C 4358 2687 4448 2496 4448 2241 
C 4448 1883 4198 1187 4058 804 
C 4000 651 3968 568 3968 453 
C 3968 166 4166 -64 4474 -64 
C 5069 -64 5293 874 5293 913 
C 5293 945 5267 970 5229 970 
C 5171 970 5165 951 5133 842 
C 4986 332 4749 64 4493 64 
C 4429 64 4326 70 4326 274 
C 4326 440 4403 645 4429 715 
C 4544 1021 4832 1775 4832 2145 
C 4832 2528 4608 2816 4122 2816 
C 3693 2816 3347 2573 3091 2196 
C 3072 2541 2861 2816 2381 2816 
C 1811 2816 1510 2413 1395 2253 
C 1376 2617 1114 2816 832 2816 
C 646 2816 499 2726 378 2483 
C 262 2253 173 1864 173 1838 
C 173 1813 198 1781 243 1781 
C 294 1781 301 1787 339 1934 
C 435 2311 557 2687 813 2687 
C 960 2687 1011 2585 1011 2394 
C 1011 2253 947 2004 902 1807 
L 723 1117 
C 698 996 627 708 595 593 
C 550 427 480 127 480 95 
C 480 6 550 -64 646 -64 
C 723 -64 813 -26 864 70 
C 877 102 934 325 966 453 
L 1107 1028 
L 1318 1870 
z
" transform="scale(0.015625)"/>
       <path id="CMMI12-3d" d="M 2746 4563 
C 2746 4569 2784 4665 2784 4678 
C 2784 4755 2720 4800 2669 4800 
C 2637 4800 2579 4800 2528 4659 
L 384 -1364 
C 384 -1370 346 -1466 346 -1479 
C 346 -1556 410 -1600 461 -1600 
C 499 -1600 557 -1594 602 -1460 
L 2746 4563 
z
" transform="scale(0.015625)"/>
       <path id="CMMI12-73" d="M 1459 1290 
C 1568 1271 1741 1233 1779 1227 
C 1862 1201 2150 1099 2150 793 
C 2150 595 1971 64 1229 64 
C 1094 64 614 83 486 447 
C 742 414 870 614 870 755 
C 870 889 781 960 653 960 
C 512 960 326 851 326 563 
C 326 176 710 -64 1222 -64 
C 2195 -64 2483 665 2483 998 
C 2483 1093 2483 1271 2278 1475 
C 2118 1627 1965 1659 1619 1729 
C 1446 1767 1171 1824 1171 2111 
C 1171 2239 1286 2687 1894 2687 
C 2163 2687 2426 2589 2490 2368 
C 2208 2368 2195 2124 2195 2118 
C 2195 1983 2317 1945 2374 1945 
C 2464 1945 2643 2015 2643 2284 
C 2643 2546 2400 2816 1901 2816 
C 1062 2816 838 2169 838 1907 
C 838 1424 1312 1322 1459 1290 
z
" transform="scale(0.015625)"/>
       <path id="CMMI12-56" d="M 3962 3644 
C 4179 3987 4378 4140 4704 4166 
C 4768 4172 4819 4172 4819 4287 
C 4819 4313 4806 4352 4749 4352 
C 4634 4352 4358 4339 4243 4339 
C 4058 4339 3866 4352 3686 4352 
C 3635 4352 3571 4352 3571 4230 
C 3571 4172 3629 4166 3654 4166 
C 3891 4146 3917 4032 3917 3956 
C 3917 3860 3827 3714 3821 3708 
L 1811 540 
L 1363 3968 
C 1363 4153 1696 4166 1766 4166 
C 1862 4166 1920 4166 1920 4287 
C 1920 4352 1850 4352 1830 4352 
C 1722 4352 1594 4339 1485 4339 
L 1126 4339 
C 659 4339 467 4352 461 4352 
C 422 4352 346 4352 346 4236 
C 346 4166 390 4166 493 4166 
C 819 4166 838 4108 858 3949 
L 1370 25 
C 1389 -109 1389 -128 1478 -128 
C 1555 -128 1587 -109 1651 -7 
L 3962 3644 
z
" transform="scale(0.015625)"/>
      </defs>
      <use xlink:href="#CMR17-4d" transform="scale(0.996264)"/>
      <use xlink:href="#CMR17-61" transform="translate(84.686941 0) scale(0.996264)"/>
      <use xlink:href="#CMR17-67" transform="translate(130.377418 0) scale(0.996264)"/>
      <use xlink:href="#CMR17-6e" transform="translate(176.067895 0) scale(0.996264)"/>
      <use xlink:href="#CMR17-69" transform="translate(226.963265 0) scale(0.996264)"/>
      <use xlink:href="#CMR17-74" transform="translate(251.834323 0) scale(0.996264)"/>
      <use xlink:href="#CMR17-75" transform="translate(287.115091 0) scale(0.996264)"/>
      <use xlink:href="#CMR17-64" transform="translate(338.010461 0) scale(0.996264)"/>
      <use xlink:href="#CMR17-65" transform="translate(388.90583 0) scale(0.996264)"/>
      <use xlink:href="#CMSY10-6a" transform="translate(459.467457 0) scale(0.996264)"/>
      <use xlink:href="#CMMI12-47" transform="translate(487.141542 0) scale(0.996264)"/>
      <use xlink:href="#CMMI12-76" transform="translate(564.088404 -14.943915) scale(0.697382)"/>
      <use xlink:href="#CMMI12-75" transform="translate(599.602853 -14.943915) scale(0.697382)"/>
      <use xlink:href="#CMSY10-6a" transform="translate(638.965041 0) scale(0.996264)"/>
      <use xlink:href="#CMR17-2f" transform="translate(696.715092 0) scale(0.996264)"/>
      <use xlink:href="#CMR17-64" transform="translate(772.481536 0) scale(0.996264)"/>
      <use xlink:href="#CMR17-42" transform="translate(823.376906 0) scale(0.996264)"/>
      <use xlink:href="#CMR17-72" transform="translate(918.641626 0) scale(0.996264)"/>
      <use xlink:href="#CMR17-65" transform="translate(953.922394 0) scale(0.996264)"/>
      <use xlink:href="#CMR17-31" transform="translate(1024.484021 0) scale(0.996264)"/>
      <use xlink:href="#CMMI12-6d" transform="translate(1101.445978 48.318576) scale(0.697382)"/>
      <use xlink:href="#CMMI12-3d" transform="translate(1161.174769 48.318576) scale(0.697382)"/>
      <use xlink:href="#CMMI12-73" transform="translate(1195.317061 48.318576) scale(0.697382)"/>
      <use xlink:href="#CMMI12-56" transform="translate(1136.972529 -34.355253) scale(0.697382)"/>
      <path d="M 1101.445978 22.914133 
L 1227.481949 22.914133 
L 1227.481949 26.899083 
L 1101.445978 26.899083 
L 1101.445978 22.914133 
z
"/>
     </g>
    </g>
   </g>
   <g id="line2d_69">
    <path d="M -1 71.964456 
L 12.905627 68.428184 
L 25.960319 65.491519 
L 37.769725 61.591246 
L 48.550867 59.288056 
L 58.468557 56.629865 
L 67.650904 54.977757 
L 98.790012 48.953351 
L 105.489209 48.150295 
L 111.844704 47.153872 
L 117.890048 46.526652 
L 123.654109 45.645513 
L 134.435252 44.955858 
L 139.4933 44.325679 
L 144.352942 44.222282 
L 153.535288 43.621266 
L 166.146671 43.262963 
L 173.893254 43.382937 
L 177.592185 43.227915 
L 181.183885 43.259908 
L 184.674396 43.487605 
L 188.069266 43.573448 
L 191.373594 43.832082 
L 194.592086 43.832724 
L 203.774433 44.505945 
L 206.689978 44.676573 
L 212.322993 45.332287 
L 215.046289 45.451538 
L 227.831329 46.957857 
L 230.237326 47.424637 
L 232.597493 47.58095 
L 237.18709 48.280312 
L 239.419673 48.547823 
L 241.612739 49.028077 
L 250.016296 50.378974 
L 257.885923 51.827611 
L 259.777639 52.07549 
L 278.877675 56.018404 
L 295.422879 59.813582 
L 298.207378 60.506279 
L 312.494965 64.006688 
L 313.715714 64.536637 
L 317.307414 65.285142 
L 321.939915 66.596944 
L 326.405442 67.785839 
L 345.662023 73.158393 
L 347.525291 73.672304 
L 352.064443 74.979832 
L 353.834544 75.482403 
L 355.579713 76.024261 
L 359.838035 77.245537 
L 388.818956 85.997167 
L 395.273799 87.994894 
L 399.600098 89.32204 
L 450.243501 105.513134 
L 451.847471 106.039267 
L 456.921455 107.70345 
L 462.893935 109.669543 
L 466.485635 110.861279 
L 470.662603 112.240111 
L 472.02421 112.704443 
L 479.893837 115.317433 
L 488.187972 118.114696 
L 492.853181 119.672601 
L 543.947829 137.445168 
L 546.572238 138.388418 
L 553.427537 140.866228 
L 557.229661 142.249862 
L 563.857176 144.686739 
L 565.141176 145.164521 
L 568.760246 146.504068 
L 570.607311 147.194845 
L 602.844949 159.6358 
L 604.482999 160.2961 
L 608.598303 161.944868 
L 612.035708 163.347906 
L 617.176842 165.448432 
L 618.325569 165.927198 
L 621.303951 167.15865 
L 622.816851 167.797163 
L 625.983924 169.119962 
L 628.785793 170.305692 
L 639.048387 174.716248 
L 664.764945 186.273435 
L 666.115228 186.904366 
L 672.385875 189.845921 
L 678.674158 192.83861 
L 681.57782 194.228211 
L 682.448205 194.654338 
L 687.069338 196.896815 
L 710.591433 208.651188 
L 711.231515 208.980733 
L 712.355932 209.550787 
L 713.855483 210.322995 
L 722.938193 215.012296 
L 724.888795 216.028998 
L 726.070727 216.647136 
L 727.629301 217.457783 
L 733.59267 220.584661 
L 738.693352 223.27034 
L 739.907157 223.918443 
L 740.451453 224.197787 
L 741.648239 224.835121 
L 749.320288 228.901279 
L 750.613596 229.589845 
L 752.246752 230.457702 
L 779.322646 244.821618 
L 780.395178 245.382934 
L 782.042244 246.252237 
L 782.678436 246.583468 
L 784.350075 247.460754 
L 786.588977 248.628394 
L 792.717036 251.808723 
L 794.810971 252.889541 
L 817.13857 264.034622 
L 818.571734 264.719439 
L 819.681891 265.25059 
L 820.477529 265.627656 
L 822.834242 266.738399 
L 829.703444 269.904071 
L 840.264166 274.519019 
L 841.334253 274.966348 
L 844.841472 276.408459 
L 846.03847 276.889095 
L 849.062088 278.081774 
L 849.16 278.119942 
L 849.16 278.119942 
" clip-path="url(#pc018551e1d)" style="fill: none; stroke: #e69f00; stroke-width: 1.5; stroke-linecap: square"/>
   </g>
   <g id="line2d_70">
    <path d="M -1 71.987294 
L 12.905627 68.454462 
L 25.960319 65.522835 
L 37.769725 61.629547 
L 48.550867 59.330835 
L 58.468557 56.68121 
L 67.650904 55.034272 
L 98.790012 49.03687 
L 105.489209 48.240303 
L 111.844704 47.250885 
L 117.890048 46.629591 
L 123.654109 45.755584 
L 134.435252 45.078551 
L 139.4933 44.454988 
L 144.352942 44.357078 
L 153.535288 43.768635 
L 166.146671 43.427489 
L 173.893254 43.558424 
L 177.592185 43.408772 
L 181.183885 43.446556 
L 184.674396 43.678554 
L 188.069266 43.769705 
L 191.373594 44.033641 
L 194.592086 44.038912 
L 203.774433 44.725831 
L 206.689978 44.899698 
L 212.322993 45.564595 
L 215.046289 45.687244 
L 227.831329 47.212252 
L 230.237326 47.68274 
L 232.597493 47.842332 
L 237.18709 48.547998 
L 239.419673 48.819093 
L 241.612739 49.302782 
L 250.016296 50.665118 
L 257.885923 52.124571 
L 259.777639 52.374972 
L 278.877675 56.343612 
L 291.125166 59.139024 
L 294.006807 59.840771 
L 300.930673 61.444297 
L 304.906575 62.521435 
L 307.488022 63.166318 
L 310.016783 63.836875 
L 312.494965 64.376606 
L 313.715714 64.908739 
L 317.307414 65.661929 
L 321.939915 66.980481 
L 326.405442 68.17594 
L 345.662023 73.578739 
L 347.525291 74.095572 
L 352.064443 75.411054 
L 353.834544 75.916785 
L 355.579713 76.46184 
L 359.838035 77.691083 
L 387.486631 86.085915 
L 389.479784 86.726275 
L 391.441381 87.312103 
L 396.525376 88.917313 
L 400.808937 90.242681 
L 403.191798 91.011603 
L 404.366262 91.395848 
L 406.68231 92.118646 
L 435.700036 101.46386 
L 436.604456 101.783754 
L 459.569906 109.409385 
L 460.687853 109.798603 
L 500.617105 123.587099 
L 502.219347 124.162872 
L 546.014525 140.30993 
L 548.77832 141.383455 
L 550.587184 142.069301 
L 553.25191 143.11114 
L 557.908594 144.930278 
L 564.340237 147.492902 
L 566.253865 148.256986 
L 575.549191 152.038782 
L 600.945985 162.840698 
L 602.254643 163.431351 
L 603.080286 163.780346 
L 605.178445 164.720049 
L 608.034841 165.996498 
L 611.377804 167.510104 
L 614.846937 169.085163 
L 617.700312 170.400036 
L 631.245057 176.778424 
L 634.023311 178.114614 
L 643.623594 182.826004 
L 648.444114 185.243234 
L 649.90279 185.97292 
L 653.397777 187.753346 
L 654.489458 188.30708 
L 656.873059 189.535257 
L 663.832515 193.154843 
L 677.131752 200.2517 
L 678.03382 200.745167 
L 688.257314 206.368209 
L 688.847058 206.702792 
L 690.831448 207.814173 
L 693.749687 209.448788 
L 694.426457 209.841564 
L 713.66301 220.932781 
L 714.574609 221.471193 
L 732.811192 232.408227 
L 734.042862 233.163054 
L 739.673153 236.617773 
L 741.031987 237.46049 
L 749.031044 242.442122 
L 750.542099 243.39443 
L 752.387753 244.553727 
L 753.649597 245.355287 
L 758.739724 248.586766 
L 763.24227 251.472935 
L 764.430739 252.232241 
L 765.13203 252.688417 
L 768.177612 254.65661 
L 770.116311 255.915572 
L 776.425997 260.043689 
L 777.724954 260.903215 
L 781.569907 263.447072 
L 783.036583 264.424332 
L 785.380138 265.988344 
L 786.482 266.727805 
L 787.865536 267.658344 
L 791.438336 270.071992 
L 794.835984 272.38415 
L 797.263143 274.044113 
L 799.258122 275.418712 
L 803.154228 278.115922 
L 803.807343 278.574746 
L 806.93155 280.76184 
L 818.178746 288.797815 
L 819.333468 289.640203 
L 820.192503 290.263236 
L 820.782189 290.698676 
L 821.872802 291.499024 
L 829.401053 297.115189 
L 833.806449 300.482866 
L 834.58922 301.085339 
L 836.587295 302.638167 
L 837.388235 303.265586 
L 849.16 312.784371 
L 849.16 312.784371 
" clip-path="url(#pc018551e1d)" style="fill: none; stroke: #56b4e9; stroke-width: 1.5; stroke-linecap: square"/>
   </g>
   <g id="patch_3">
    <path d="M 61.602031 371.614399 
L 61.602031 27.590463 
" style="fill: none; stroke: #000000; stroke-width: 0.8; stroke-linejoin: miter; stroke-linecap: square"/>
   </g>
   <g id="patch_4">
    <path d="M 831.622898 371.614399 
L 831.622898 27.590463 
" style="fill: none; stroke: #000000; stroke-width: 0.8; stroke-linejoin: miter; stroke-linecap: square"/>
   </g>
   <g id="patch_5">
    <path d="M 61.602031 371.614399 
L 831.622898 371.614399 
" style="fill: none; stroke: #000000; stroke-width: 0.8; stroke-linejoin: miter; stroke-linecap: square"/>
   </g>
   <g id="patch_6">
    <path d="M 61.602031 27.590463 
L 831.622898 27.590463 
" style="fill: none; stroke: #000000; stroke-width: 0.8; stroke-linejoin: miter; stroke-linecap: square"/>
   </g>
   <g id="text_13">
    <!-- $\textrm{Linear model solved with different solvers $\hat{G}_{vu}$}$ -->
    <g transform="translate(289.530859 21.590463) scale(0.16 -0.16)">
     <defs>
      <path id="CMR17-4c" d="M 3469 1612 
L 3354 1612 
C 3302 981 3219 166 2125 166 
L 1530 166 
C 1274 166 1261 198 1261 414 
L 1261 3892 
C 1261 4121 1274 4185 1760 4185 
L 1901 4185 
L 1901 4352 
C 1638 4339 1331 4339 1069 4339 
C 870 4339 512 4339 326 4352 
L 326 4185 
C 768 4185 838 4185 838 3898 
L 838 453 
C 838 166 768 166 326 166 
L 326 0 
L 3315 0 
L 3469 1612 
z
" transform="scale(0.015625)"/>
      <path id="CMR17-6d" d="M 4326 1954 
C 4326 2276 4269 2816 3507 2816 
C 3072 2816 2771 2520 2656 2173 
L 2650 2173 
C 2573 2700 2195 2816 1837 2816 
C 1331 2816 1069 2424 973 2166 
L 966 2166 
L 966 2816 
L 211 2745 
L 211 2578 
C 589 2578 646 2540 646 2231 
L 646 443 
C 646 198 621 166 211 166 
L 211 0 
C 365 12 646 12 813 12 
C 979 12 1267 12 1421 0 
L 1421 166 
C 1011 166 986 192 986 443 
L 986 1678 
C 986 2269 1344 2713 1792 2713 
C 2266 2713 2317 2289 2317 1980 
L 2317 443 
C 2317 198 2291 166 1882 166 
L 1882 0 
C 2035 12 2317 12 2483 12 
C 2650 12 2938 12 3091 0 
L 3091 166 
C 2682 166 2656 192 2656 443 
L 2656 1678 
C 2656 2269 3014 2713 3462 2713 
C 3936 2713 3987 2289 3987 1980 
L 3987 443 
C 3987 198 3962 166 3552 166 
L 3552 0 
C 3706 12 3987 12 4154 12 
C 4320 12 4608 12 4762 0 
L 4762 166 
C 4352 166 4326 192 4326 443 
L 4326 1954 
z
" transform="scale(0.015625)"/>
      <path id="CMR17-6f" d="M 2758 1356 
C 2758 2176 2163 2816 1466 2816 
C 768 2816 173 2176 173 1356 
C 173 550 768 -64 1466 -64 
C 2163 -64 2758 550 2758 1356 
z
M 1466 51 
C 1165 51 909 230 762 480 
C 602 768 582 1126 582 1408 
C 582 1676 595 2009 762 2297 
C 890 2508 1139 2713 1466 2713 
C 1754 2713 1997 2553 2150 2329 
C 2349 2028 2349 1606 2349 1408 
C 2349 1158 2336 774 2163 467 
C 1984 172 1709 51 1466 51 
z
" transform="scale(0.015625)"/>
      <path id="CMR17-6c" d="M 979 4416 
L 218 4345 
L 218 4179 
C 595 4179 653 4141 653 3835 
L 653 439 
C 653 198 627 166 218 166 
L 218 0 
C 371 12 653 12 813 12 
C 979 12 1261 12 1414 0 
L 1414 166 
C 1005 166 979 191 979 439 
L 979 4416 
z
" transform="scale(0.015625)"/>
      <path id="CMR17-73" d="M 1978 2688 
C 1978 2803 1971 2809 1933 2809 
C 1907 2809 1901 2803 1824 2707 
C 1805 2681 1747 2617 1728 2592 
C 1523 2809 1235 2816 1126 2816 
C 416 2816 160 2444 160 2073 
C 160 1497 813 1363 998 1324 
C 1402 1241 1542 1216 1677 1100 
C 1760 1024 1901 883 1901 652 
C 1901 384 1747 38 1158 38 
C 602 38 403 460 288 1024 
C 269 1113 269 1120 218 1120 
C 166 1120 160 1113 160 985 
L 160 64 
C 160 -52 166 -58 205 -58 
C 237 -58 243 -52 275 0 
C 314 57 410 211 448 275 
C 576 102 800 -64 1158 -64 
C 1792 -64 2131 281 2131 780 
C 2131 1107 1958 1280 1875 1356 
C 1683 1555 1459 1600 1190 1651 
C 838 1728 390 1817 390 2208 
C 390 2374 480 2726 1126 2726 
C 1811 2726 1850 2086 1862 1881 
C 1869 1849 1901 1843 1920 1843 
C 1978 1843 1978 1862 1978 1971 
L 1978 2688 
z
" transform="scale(0.015625)"/>
      <path id="CMR17-76" d="M 2502 2173 
C 2560 2315 2662 2572 3034 2585 
L 3034 2752 
C 2912 2745 2752 2739 2630 2739 
C 2496 2739 2285 2739 2157 2752 
L 2157 2585 
C 2317 2572 2406 2495 2406 2328 
C 2406 2270 2406 2257 2368 2167 
L 1664 379 
L 902 2308 
C 864 2392 864 2405 864 2431 
C 864 2585 1075 2585 1171 2585 
L 1171 2752 
C 1018 2739 736 2739 576 2739 
C 403 2739 205 2739 64 2752 
L 64 2585 
C 307 2585 442 2585 518 2386 
L 1446 44 
C 1485 -52 1491 -64 1549 -64 
C 1606 -64 1613 -52 1651 44 
L 2502 2173 
z
" transform="scale(0.015625)"/>
      <path id="CMR17-77" d="M 3725 2186 
C 3853 2566 4109 2579 4205 2585 
L 4205 2752 
C 4077 2745 3949 2739 3821 2739 
C 3699 2739 3424 2739 3315 2752 
L 3315 2585 
C 3514 2572 3622 2456 3622 2296 
C 3622 2251 3610 2193 3597 2148 
L 2995 398 
L 2342 2296 
C 2330 2341 2310 2392 2310 2418 
C 2310 2585 2528 2585 2630 2585 
L 2630 2752 
C 2483 2739 2214 2739 2061 2739 
C 1901 2739 1734 2739 1587 2752 
L 1587 2585 
C 1939 2585 1939 2572 2074 2167 
L 1485 443 
L 851 2302 
C 819 2386 819 2399 819 2418 
C 819 2585 1037 2585 1139 2585 
L 1139 2752 
C 986 2739 717 2739 557 2739 
C 416 2739 198 2739 64 2752 
L 64 2585 
C 346 2585 416 2566 486 2353 
L 1274 38 
C 1299 -45 1318 -64 1370 -64 
C 1414 -64 1440 -52 1472 44 
L 2131 1987 
L 2797 44 
C 2829 -52 2854 -64 2899 -64 
C 2950 -64 2970 -45 2995 38 
L 3725 2186 
z
" transform="scale(0.015625)"/>
      <path id="CMR17-68" d="M 2656 1954 
C 2656 2282 2592 2816 1837 2816 
C 1312 2816 1056 2392 979 2179 
L 973 2179 
L 973 4416 
L 211 4345 
L 211 4179 
C 589 4179 646 4141 646 3843 
L 646 443 
C 646 198 621 166 211 166 
L 211 0 
C 365 12 646 12 813 12 
C 979 12 1267 12 1421 0 
L 1421 166 
C 1011 166 986 192 986 443 
L 986 1678 
C 986 2269 1344 2713 1792 2713 
C 2266 2713 2317 2289 2317 1980 
L 2317 443 
C 2317 198 2291 166 1882 166 
L 1882 0 
C 2035 12 2317 12 2483 12 
C 2650 12 2938 12 3091 0 
L 3091 166 
C 2682 166 2656 192 2656 443 
L 2656 1954 
z
" transform="scale(0.015625)"/>
      <path id="CMR17-b" d="M 2554 2585 
L 3283 2585 
L 3283 2752 
L 2541 2752 
L 2541 3520 
C 2541 4047 2810 4377 3085 4377 
C 3168 4377 3264 4352 3328 4307 
C 3277 4294 3142 4250 3142 4091 
C 3142 3926 3270 3875 3360 3875 
C 3450 3875 3578 3926 3578 4091 
C 3578 4333 3347 4480 3091 4480 
C 2842 4480 2637 4358 2477 4206 
C 2330 4415 2086 4480 1837 4480 
C 1338 4480 634 4193 634 3494 
L 634 2752 
L 122 2752 
L 122 2585 
L 634 2585 
L 634 441 
C 634 198 608 166 198 166 
L 198 0 
C 352 12 634 12 794 12 
C 960 12 1242 12 1395 0 
L 1395 166 
C 986 166 960 192 960 441 
L 960 2585 
L 2227 2585 
L 2227 441 
C 2227 198 2202 166 1792 166 
L 1792 0 
C 1946 12 2240 12 2406 12 
C 2592 12 2918 12 3091 0 
L 3091 166 
C 2630 166 2554 166 2554 454 
L 2554 2585 
z
M 947 2752 
L 947 3494 
C 947 4072 1395 4377 1824 4377 
C 1920 4377 2170 4358 2323 4218 
C 2208 4212 2099 4161 2099 4002 
C 2099 3837 2246 3793 2259 3793 
C 2227 3679 2227 3552 2227 3507 
L 2227 2752 
L 947 2752 
z
" transform="scale(0.015625)"/>
      <path id="CMR17-5e" d="M 1466 4416 
L 678 3532 
L 755 3456 
L 1466 4159 
L 2176 3456 
L 2253 3532 
L 1466 4416 
z
" transform="scale(0.015625)"/>
     </defs>
     <use xlink:href="#CMR17-4c" transform="scale(0.996264)"/>
     <use xlink:href="#CMR17-69" transform="translate(57.381408 0) scale(0.996264)"/>
     <use xlink:href="#CMR17-6e" transform="translate(82.252466 0) scale(0.996264)"/>
     <use xlink:href="#CMR17-65" transform="translate(133.147836 0) scale(0.996264)"/>
     <use xlink:href="#CMR17-61" transform="translate(173.633497 0) scale(0.996264)"/>
     <use xlink:href="#CMR17-72" transform="translate(219.323974 0) scale(0.996264)"/>
     <use xlink:href="#CMR17-6d" transform="translate(284.680708 0) scale(0.996264)"/>
     <use xlink:href="#CMR17-6f" transform="translate(361.600298 0) scale(0.996264)"/>
     <use xlink:href="#CMR17-64" transform="translate(409.893214 0) scale(0.996264)"/>
     <use xlink:href="#CMR17-65" transform="translate(460.788583 0) scale(0.996264)"/>
     <use xlink:href="#CMR17-6c" transform="translate(501.274244 0) scale(0.996264)"/>
     <use xlink:href="#CMR17-73" transform="translate(556.221269 0) scale(0.996264)"/>
     <use xlink:href="#CMR17-6f" transform="translate(592.022606 0) scale(0.996264)"/>
     <use xlink:href="#CMR17-6c" transform="translate(637.713083 0) scale(0.996264)"/>
     <use xlink:href="#CMR17-76" transform="translate(662.584142 0) scale(0.996264)"/>
     <use xlink:href="#CMR17-65" transform="translate(708.274604 0) scale(0.996264)"/>
     <use xlink:href="#CMR17-64" transform="translate(748.760264 0) scale(0.996264)"/>
     <use xlink:href="#CMR17-77" transform="translate(829.7316 0) scale(0.996264)"/>
     <use xlink:href="#CMR17-69" transform="translate(896.241481 0) scale(0.996264)"/>
     <use xlink:href="#CMR17-74" transform="translate(921.112539 0) scale(0.996264)"/>
     <use xlink:href="#CMR17-68" transform="translate(956.393307 0) scale(0.996264)"/>
     <use xlink:href="#CMR17-64" transform="translate(1037.364643 0) scale(0.996264)"/>
     <use xlink:href="#CMR17-69" transform="translate(1088.260013 0) scale(0.996264)"/>
     <use xlink:href="#CMR17-b" transform="translate(1113.131072 0) scale(0.996264)"/>
     <use xlink:href="#CMR17-65" transform="translate(1165.475749 0) scale(0.996264)"/>
     <use xlink:href="#CMR17-72" transform="translate(1205.961409 0) scale(0.996264)"/>
     <use xlink:href="#CMR17-65" transform="translate(1241.242177 0) scale(0.996264)"/>
     <use xlink:href="#CMR17-6e" transform="translate(1281.727838 0) scale(0.996264)"/>
     <use xlink:href="#CMR17-74" transform="translate(1330.020753 0) scale(0.996264)"/>
     <use xlink:href="#CMR17-73" transform="translate(1395.377488 0) scale(0.996264)"/>
     <use xlink:href="#CMR17-6f" transform="translate(1431.178825 0) scale(0.996264)"/>
     <use xlink:href="#CMR17-6c" transform="translate(1476.869302 0) scale(0.996264)"/>
     <use xlink:href="#CMR17-76" transform="translate(1501.740361 0) scale(0.996264)"/>
     <use xlink:href="#CMR17-65" transform="translate(1547.430823 0) scale(0.996264)"/>
     <use xlink:href="#CMR17-72" transform="translate(1587.916483 0) scale(0.996264)"/>
     <use xlink:href="#CMR17-73" transform="translate(1623.197251 0) scale(0.996264)"/>
     <use xlink:href="#CMR17-5e" transform="translate(1712.831901 25.189733) scale(0.996264)"/>
     <use xlink:href="#CMMI12-47" transform="translate(1689.074555 0) scale(0.996264)"/>
     <use xlink:href="#CMMI12-76" transform="translate(1766.021417 -14.943915) scale(0.697382)"/>
     <use xlink:href="#CMMI12-75" transform="translate(1801.535866 -14.943915) scale(0.697382)"/>
    </g>
   </g>
   <g id="legend_1">
    <g id="patch_7">
     <path d="M 680.675005 80.685856 
L 821.822898 80.685856 
Q 824.622898 80.685856 824.622898 77.885856 
L 824.622898 37.390463 
Q 824.622898 34.590463 821.822898 34.590463 
L 680.675005 34.590463 
Q 677.875005 34.590463 677.875005 37.390463 
L 677.875005 77.885856 
Q 677.875005 80.685856 680.675005 80.685856 
z
" style="fill: #ffffff; opacity: 0.8; stroke: #cccccc; stroke-linejoin: miter"/>
    </g>
    <g id="line2d_71">
     <path d="M 683.475005 45.751235 
L 697.475005 45.751235 
L 711.475005 45.751235 
" style="fill: none; stroke: #e69f00; stroke-width: 1.5; stroke-linecap: square"/>
    </g>
    <g id="text_14">
     <!-- $\textrm{$\textrm{Forward}$ $\textrm{(Mag)}$}$ -->
     <g transform="translate(722.675005 50.651235) scale(0.14 -0.14)">
      <defs>
       <path id="CMR17-28" d="M 1958 -1562 
C 1958 -1556 1958 -1543 1939 -1524 
C 1645 -1223 858 -403 858 1596 
C 858 3595 1632 4408 1946 4729 
C 1946 4735 1958 4748 1958 4767 
C 1958 4787 1939 4800 1914 4800 
C 1843 4800 1299 4325 986 3620 
C 666 2909 576 2218 576 1603 
C 576 1141 621 360 1005 -467 
C 1312 -1133 1837 -1600 1914 -1600 
C 1946 -1600 1958 -1588 1958 -1562 
z
" transform="scale(0.015625)"/>
       <path id="CMR17-29" d="M 1683 1596 
C 1683 2057 1638 2839 1254 3665 
C 947 4332 422 4800 346 4800 
C 326 4800 301 4793 301 4761 
C 301 4748 307 4742 314 4729 
C 621 4408 1402 3595 1402 1603 
C 1402 -396 627 -1210 314 -1530 
C 307 -1543 301 -1549 301 -1562 
C 301 -1594 326 -1600 346 -1600 
C 416 -1600 960 -1127 1274 -422 
C 1594 289 1683 981 1683 1596 
z
" transform="scale(0.015625)"/>
      </defs>
      <use xlink:href="#CMR17-46" transform="scale(0.996264)"/>
      <use xlink:href="#CMR17-6f" transform="translate(52.176591 0) scale(0.996264)"/>
      <use xlink:href="#CMR17-72" transform="translate(97.867068 0) scale(0.996264)"/>
      <use xlink:href="#CMR17-77" transform="translate(133.147836 0) scale(0.996264)"/>
      <use xlink:href="#CMR17-61" transform="translate(197.055263 0) scale(0.996264)"/>
      <use xlink:href="#CMR17-72" transform="translate(242.74574 0) scale(0.996264)"/>
      <use xlink:href="#CMR17-64" transform="translate(278.026508 0) scale(0.996264)"/>
      <use xlink:href="#CMR17-28" transform="translate(358.997844 0) scale(0.996264)"/>
      <use xlink:href="#CMR17-4d" transform="translate(394.278612 0) scale(0.996264)"/>
      <use xlink:href="#CMR17-61" transform="translate(478.965552 0) scale(0.996264)"/>
      <use xlink:href="#CMR17-67" transform="translate(524.656029 0) scale(0.996264)"/>
      <use xlink:href="#CMR17-29" transform="translate(570.346506 0) scale(0.996264)"/>
     </g>
    </g>
    <g id="line2d_72">
     <path d="M 683.475005 66.698931 
L 697.475005 66.698931 
L 711.475005 66.698931 
" style="fill: none; stroke: #56b4e9; stroke-width: 1.5; stroke-linecap: square"/>
    </g>
    <g id="text_15">
     <!-- $\textrm{$\textrm{Midpoint}$ $\textrm{(Mag)}$}$ -->
     <g transform="translate(722.675005 71.598931) scale(0.14 -0.14)">
      <defs>
       <path id="CMR17-70" d="M 1408 -1114 
C 998 -1114 973 -1088 973 -834 
L 973 380 
C 1158 109 1427 -64 1766 -64 
C 2406 -64 3053 503 3053 1382 
C 3053 2196 2496 2816 1837 2816 
C 1453 2816 1139 2603 960 2345 
L 960 2816 
L 198 2745 
L 198 2577 
C 576 2577 634 2539 634 2228 
L 634 -834 
C 634 -1081 608 -1114 198 -1114 
L 198 -1280 
C 352 -1268 634 -1268 800 -1268 
C 966 -1268 1254 -1268 1408 -1280 
L 1408 -1114 
z
M 973 2015 
C 973 2106 973 2241 1222 2481 
C 1254 2506 1472 2700 1792 2700 
C 2259 2700 2643 2112 2643 1376 
C 2643 639 2234 38 1728 38 
C 1498 38 1248 148 1056 451 
C 973 594 973 632 973 736 
L 973 2015 
z
" transform="scale(0.015625)"/>
      </defs>
      <use xlink:href="#CMR17-4d" transform="scale(0.996264)"/>
      <use xlink:href="#CMR17-69" transform="translate(84.686941 0) scale(0.996264)"/>
      <use xlink:href="#CMR17-64" transform="translate(109.557999 0) scale(0.996264)"/>
      <use xlink:href="#CMR17-70" transform="translate(160.453369 0) scale(0.996264)"/>
      <use xlink:href="#CMR17-6f" transform="translate(213.951177 0) scale(0.996264)"/>
      <use xlink:href="#CMR17-69" transform="translate(259.641654 0) scale(0.996264)"/>
      <use xlink:href="#CMR17-6e" transform="translate(284.512713 0) scale(0.996264)"/>
      <use xlink:href="#CMR17-74" transform="translate(332.805629 0) scale(0.996264)"/>
      <use xlink:href="#CMR17-28" transform="translate(398.162363 0) scale(0.996264)"/>
      <use xlink:href="#CMR17-4d" transform="translate(433.443131 0) scale(0.996264)"/>
      <use xlink:href="#CMR17-61" transform="translate(518.130071 0) scale(0.996264)"/>
      <use xlink:href="#CMR17-67" transform="translate(563.820548 0) scale(0.996264)"/>
      <use xlink:href="#CMR17-29" transform="translate(609.511026 0) scale(0.996264)"/>
     </g>
    </g>
   </g>
  </g>
 </g>
 <defs>
  <clipPath id="pc018551e1d">
   <rect x="61.602031" y="27.590463" width="770.020867" height="344.023936"/>
  </clipPath>
 </defs>
</svg>
